<svg width="100" height="100" viewBox="0 0 100 100" fill="none" xmlns="http://www.w3.org/2000/svg">
<circle cx="50" cy="50" r="50" fill="white"/>
<path fill-rule="evenodd" clip-rule="evenodd" d="M89.3028 80.3475C95.828 71.9182 99.7113 61.3404 99.7113 49.8557C99.7113 22.3211 77.3902 0 49.8557 0C22.3211 0 0 22.3211 0 49.8557C0 62.5015 4.70821 74.0477 12.4673 82.8369C13.5239 79.4346 15.3952 76.3049 17.9607 73.7395C22.1161 69.5841 27.7521 67.2496 33.6288 67.2496H69.0817C74.9584 67.2496 80.5944 69.5841 84.7498 73.7395C86.6756 75.6653 88.2103 77.9091 89.3028 80.3475ZM38.8207 28.1254C35.4964 31.4497 33.6288 35.9585 33.6288 40.6599C33.6288 45.3612 35.4964 49.87 38.8207 53.1944C42.1451 56.5187 46.6539 58.3863 51.3552 58.3863C56.0566 58.3863 60.5654 56.5187 63.8897 53.1944C67.2141 49.87 69.0817 45.3612 69.0817 40.6599C69.0817 35.9585 67.2141 31.4497 63.8897 28.1254C60.5654 24.801 56.0566 22.9334 51.3552 22.9334C46.6539 22.9334 42.1451 24.801 38.8207 28.1254Z" fill="#D1D1D1"/>
</svg>
