<svg width="60" height="60" viewBox="0 0 60 60" fill="none" xmlns="http://www.w3.org/2000/svg">
<circle cx="30" cy="30" r="30" fill="#0E2764"/>
<path fill-rule="evenodd" clip-rule="evenodd" d="M25 23.75C25 22.4239 25.5268 21.1521 26.4645 20.2145C27.4021 19.2768 28.6739 18.75 30 18.75C31.3261 18.75 32.5979 19.2768 33.5355 20.2145C34.4732 21.1521 35 22.4239 35 23.75C35 25.0761 34.4732 26.3479 33.5355 27.2855C32.5979 28.2232 31.3261 28.75 30 28.75C28.6739 28.75 27.4021 28.2232 26.4645 27.2855C25.5268 26.3479 25 25.0761 25 23.75ZM25 31.25C23.3424 31.25 21.7527 31.9085 20.5806 33.0806C19.4085 34.2527 18.75 35.8424 18.75 37.5C18.75 38.4946 19.1451 39.4484 19.8483 40.1517C20.5516 40.8549 21.5054 41.25 22.5 41.25H37.5C38.4946 41.25 39.4484 40.8549 40.1517 40.1517C40.8549 39.4484 41.25 38.4946 41.25 37.5C41.25 35.8424 40.5915 34.2527 39.4194 33.0806C38.2473 31.9085 36.6576 31.25 35 31.25H25Z" fill="white"/>
</svg>
