<svg width="75" height="76" viewBox="0 0 75 76" fill="none" xmlns="http://www.w3.org/2000/svg">
<rect x="0.5" y="0.667969" width="74" height="74" rx="4.5" fill="#C3C4C7" stroke="#C3C4C7"/>
<path fill-rule="evenodd" clip-rule="evenodd" d="M26.716 28.1083C26.716 25.2067 27.8719 22.424 29.9296 20.3723C31.9872 18.3206 34.778 17.168 37.6879 17.168C40.5979 17.168 43.3887 18.3206 45.4463 20.3723C47.504 22.424 48.6599 25.2067 48.6599 28.1083C48.6599 31.0098 47.504 33.7925 45.4463 35.8443C43.3887 37.896 40.5979 39.0486 37.6879 39.0486C34.778 39.0486 31.9872 37.896 29.9296 35.8443C27.8719 33.7925 26.716 31.0098 26.716 28.1083ZM26.716 44.5188C23.0785 44.5188 19.5901 45.9595 17.018 48.5242C14.4459 51.0888 13.001 54.5672 13.001 58.1941C13.001 60.3703 13.868 62.4573 15.4112 63.9961C16.9544 65.5349 19.0475 66.3994 21.23 66.3994H54.1459C56.3284 66.3994 58.4215 65.5349 59.9647 63.9961C61.5079 62.4573 62.3749 60.3703 62.3749 58.1941C62.3749 54.5672 60.93 51.0888 58.3579 48.5242C55.7858 45.9595 52.2974 44.5188 48.6599 44.5188H26.716Z" fill="white"/>
</svg>
