<svg width="17" height="17" viewBox="0 0 17 17" fill="none" xmlns="http://www.w3.org/2000/svg">
<path d="M17 16.1109L12.2513 11.3622C13.3925 9.99226 13.9615 8.2351 13.8401 6.45627C13.7187 4.67745 12.9161 3.01392 11.5994 1.81174C10.2827 0.609556 8.55321 -0.0387122 6.77071 0.00178967C4.9882 0.0422915 3.28994 0.768445 2.02919 2.02919C0.768445 3.28994 0.0422915 4.9882 0.00178967 6.77071C-0.0387122 8.55321 0.609556 10.2827 1.81174 11.5994C3.01392 12.9161 4.67745 13.7187 6.45627 13.8401C8.2351 13.9615 9.99226 13.3925 11.3622 12.2513L16.1109 17L17 16.1109ZM1.28008 6.93925C1.28008 5.81997 1.61198 4.72583 2.23382 3.79518C2.85566 2.86454 3.7395 2.13919 4.77358 1.71086C5.80766 1.28253 6.94553 1.17046 8.0433 1.38882C9.14107 1.60718 10.1494 2.14616 10.9409 2.93761C11.7323 3.72906 12.2713 4.73743 12.4897 5.8352C12.708 6.93297 12.596 8.07084 12.1676 9.10492C11.7393 10.139 11.014 11.0228 10.0833 11.6447C9.15267 12.2665 8.05853 12.5984 6.93925 12.5984C5.43886 12.5968 4.00039 12 2.93945 10.9391C1.87851 9.87811 1.28174 8.43965 1.28008 6.93925Z" fill="#7B7B7B"/>
</svg>
