<svg width="180" height="174" viewBox="0 0 180 174" fill="none" xmlns="http://www.w3.org/2000/svg">
<path d="M87.2826 172.867C135.487 172.867 174.565 164.265 174.565 153.653C174.565 143.042 135.487 134.439 87.2826 134.439C39.0778 134.439 0 143.042 0 153.653C0 164.265 39.0778 172.867 87.2826 172.867Z" fill="#CBCBCB"/>
<path d="M25.0409 70.5267C23.0722 99.094 51.7717 124.288 89.1431 126.8C126.515 129.312 158.406 108.189 160.375 79.6221C162.343 51.0548 133.644 25.8604 96.2725 23.3488C58.9011 20.8372 27.0096 41.9595 25.0409 70.5267Z" fill="#EBEFFF"/>
<path d="M111.099 47.1548C110.17 60.64 123.717 72.533 141.358 73.7186C159 74.9042 174.054 64.9335 174.983 51.4483C175.913 37.9631 162.365 26.0701 144.724 24.8845C127.083 23.6989 112.028 33.6697 111.099 47.1548Z" fill="#EBEFFF"/>
<path d="M114.4 85.0318C113.47 98.517 127.018 110.41 144.659 111.596C162.3 112.781 177.355 102.81 178.284 89.3253C179.213 75.8401 165.666 63.9471 148.025 62.7615C130.383 61.5759 115.329 71.5466 114.4 85.0318Z" fill="#EBEFFF"/>
<path d="M80.4798 111.586C79.5504 125.072 93.0981 136.965 110.739 138.15C128.38 139.336 143.435 129.365 144.364 115.88C145.294 102.395 131.746 90.5018 114.105 89.3162C96.4635 88.1305 81.4091 98.1013 80.4798 111.586Z" fill="#EBEFFF"/>
<path d="M28.9388 107.907C28.0094 121.392 41.5571 133.285 59.1982 134.471C76.8394 135.656 91.8938 125.685 92.8232 112.2C93.7525 98.7151 80.2048 86.8221 62.5637 85.6365C44.9225 84.4509 29.8681 94.4216 28.9388 107.907Z" fill="#EBEFFF"/>
<path d="M3.69364 73.9341C2.76431 87.4193 16.3119 99.3123 33.9531 100.498C51.5943 101.684 66.6487 91.7128 67.578 78.2276C68.5074 64.7424 54.9597 52.8494 37.3185 51.6638C19.6774 50.4782 4.62297 60.449 3.69364 73.9341Z" fill="#EBEFFF"/>
<path d="M14.4319 36.5689C13.5026 50.0541 27.0502 61.9471 44.6914 63.1327C62.3326 64.3183 77.387 54.3476 78.3163 40.8624C79.2457 27.3772 65.698 15.4842 48.0568 14.2986C30.4156 13.113 15.3612 23.0837 14.4319 36.5689Z" fill="#EBEFFF"/>
<path d="M67.346 24.4166C66.4167 37.9017 79.9643 49.7947 97.6055 50.9804C115.247 52.166 130.301 42.1952 131.23 28.71C132.16 15.2249 118.612 3.33184 100.971 2.14623C83.3297 0.96062 68.2753 10.9314 67.346 24.4166Z" fill="#EBEFFF"/>
<path d="M107.352 67.7364C111.696 68.3069 115.877 63.8711 116.69 57.8287C117.504 51.7864 114.642 46.4256 110.298 45.8552C105.954 45.2847 101.773 49.7206 100.959 55.7629C100.146 61.8052 103.008 67.166 107.352 67.7364Z" fill="white"/>
<path d="M103.028 57.7018C102.865 57.0556 103.195 56.3836 103.82 56.1346C106.075 55.2376 107.962 54.792 111.015 54.3978C111.687 54.3111 112.315 54.7411 112.479 55.3909C112.678 56.1771 112.124 56.9521 111.311 57.0609C108.779 57.3995 107.049 57.8703 104.88 58.6569C104.096 58.9411 103.23 58.5014 103.028 57.7018Z" fill="#0E2764"/>
<path d="M111.991 57.7762L104.333 56.774C103.738 56.696 103.191 57.1096 103.112 57.6978C103.033 58.2859 103.452 58.8259 104.047 58.9039L111.705 59.9062C112.3 59.9841 112.847 59.5705 112.926 58.9824C113.005 58.3942 112.586 57.8542 111.991 57.7762Z" fill="#0E2764"/>
<path d="M103.094 57.3668C103.492 56.6882 104.406 56.5191 105.043 56.9875C106.992 58.4196 108.519 59.2764 110.868 60.3007C111.576 60.6094 111.867 61.455 111.478 62.116C111.159 62.6591 110.485 62.8908 109.897 62.651C106.995 61.467 105.279 60.5323 103.364 58.9589C102.889 58.5686 102.784 57.8947 103.094 57.3668Z" fill="#0E2764"/>
<path d="M77.214 61.6056C81.558 62.1761 85.7391 57.7402 86.5528 51.6979C87.3664 45.6555 84.5045 40.2948 80.1605 39.7243C75.8164 39.1539 71.6353 43.5897 70.8217 49.632C70.008 55.6744 72.8699 61.0351 77.214 61.6056Z" fill="white"/>
<path d="M79.6617 57.6432C81.756 57.8102 83.6182 55.9337 83.8211 53.4519C84.024 50.9701 82.4908 48.8228 80.3965 48.6559C78.3022 48.4889 76.44 50.3654 76.2371 52.8472C76.0342 55.329 77.5674 57.4762 79.6617 57.6432Z" fill="#0E2764"/>
<path d="M28.7143 92.5774H51.5222V71.5387C51.5222 70.7416 51.2015 69.9771 50.6306 69.4136C50.06 68.8499 49.2859 68.5332 48.4787 68.5332H28.6961C26.8609 68.5332 24.1309 69.7339 24.1309 73.0415V94.0802C24.1309 97.3877 26.8609 98.5884 28.6961 98.5884H51.5222V95.5829H28.7143C28.0113 95.5649 27.1743 95.2899 27.1743 94.0802C27.1743 92.8704 28.0113 92.5954 28.7143 92.5774ZM31.7396 74.5442H45.4352V77.5498H31.7396V74.5442Z" fill="black"/>
<path d="M63.6173 78.55C70.3397 78.6665 75.844 75.6858 75.9114 71.8923C75.9789 68.0988 70.5839 64.9291 63.8615 64.8126C57.1391 64.696 51.6348 67.6768 51.5674 71.4703C51.4999 75.2638 56.8949 78.4334 63.6173 78.55Z" fill="#F3CAE5"/>
<path d="M121.356 84.0597C128.078 84.1763 133.582 81.1955 133.65 77.402C133.717 73.6085 128.322 70.4389 121.6 70.3223C114.877 70.2058 109.373 73.1866 109.306 76.98C109.238 80.7735 114.633 83.9432 121.356 84.0597Z" fill="#F3CAE5"/>
<path d="M77.974 69.1303C78.2548 67.2239 80.3153 66.128 82.1183 66.8633C90.0783 70.1097 95.5337 70.8138 103.364 69.9542C105.296 69.7421 106.958 71.3604 106.678 73.2603C106.478 74.6171 105.327 75.6461 103.939 75.6838C94.5381 75.94 88.5863 75.1096 79.8981 72.2451C78.5761 71.8093 77.7733 70.492 77.974 69.1303Z" fill="#0E2764"/>
</svg>
