<svg width="118" height="113" viewBox="0 0 118 113" fill="none" xmlns="http://www.w3.org/2000/svg">
<path d="M43.7835 0H40.8942C40.0255 0 39.3213 0.704195 39.3213 1.57286V4.46226C39.3213 5.33093 40.0255 6.03513 40.8942 6.03513H43.7835C44.6522 6.03513 45.3564 5.33093 45.3564 4.46226V1.57286C45.3564 0.704195 44.6522 0 43.7835 0Z" fill="#3F3D56"/>
<path d="M25.9496 113H23.5051L33.412 68.4708L38.4025 69.8143L25.9496 113Z" fill="#3F3D56"/>
<path d="M59.027 113H61.471L51.5646 68.4708L46.574 69.8143L59.027 113Z" fill="#3F3D56"/>
<path d="M1.04858 3.81271H83.4693C83.9103 3.81271 84.2679 4.17024 84.2679 4.61128V73.5385C84.2679 73.9796 83.9103 74.3371 83.4693 74.3371H1.04858C0.607534 74.3371 0.25 73.9796 0.25 73.5385V4.61128C0.25 4.17024 0.607535 3.81271 1.04858 3.81271Z" fill="#F4F5F9" stroke="#3F3D56" stroke-width="0.5"/>
<path d="M49.5492 16.3313C49.4504 16.3312 49.3554 16.2928 49.2843 16.2242C49.2133 16.1556 49.1715 16.062 49.168 15.9633C49.1644 15.8646 49.1992 15.7683 49.2652 15.6947C49.3311 15.6211 49.423 15.5759 49.5216 15.5687L56.5236 15.0539C56.5736 15.0502 56.6238 15.0564 56.6714 15.0722C56.719 15.0879 56.7631 15.1129 56.801 15.1456C56.839 15.1784 56.8701 15.2183 56.8926 15.2631C56.9152 15.3079 56.9286 15.3567 56.9323 15.4067C56.936 15.4567 56.9298 15.5069 56.914 15.5545C56.8983 15.6021 56.8733 15.6461 56.8406 15.6841C56.8078 15.722 56.7679 15.7532 56.7231 15.7757C56.6783 15.7982 56.6295 15.8117 56.5795 15.8154L49.5775 16.3302C49.568 16.3309 49.5585 16.3313 49.5492 16.3313Z" fill="#3F3D56"/>
<path d="M56.5512 18.2925H49.5491C49.4478 18.2925 49.3507 18.2523 49.2791 18.1807C49.2075 18.109 49.1672 18.0119 49.1672 17.9106C49.1672 17.8093 49.2075 17.7122 49.2791 17.6406C49.3507 17.569 49.4478 17.5288 49.5491 17.5288H56.5512C56.6524 17.5288 56.7496 17.569 56.8212 17.6406C56.8928 17.7122 56.933 17.8093 56.933 17.9106C56.933 18.0119 56.8928 18.109 56.8212 18.1807C56.7496 18.2523 56.6524 18.2925 56.5512 18.2925Z" fill="#3F3D56"/>
<path d="M56.5512 20.7684H49.5491C49.4478 20.7684 49.3507 20.7281 49.2791 20.6565C49.2075 20.5849 49.1672 20.4878 49.1672 20.3865C49.1672 20.2852 49.2075 20.1881 49.2791 20.1165C49.3507 20.0449 49.4478 20.0046 49.5491 20.0046H56.5512C56.6524 20.0046 56.7496 20.0449 56.8212 20.1165C56.8928 20.1881 56.933 20.2852 56.933 20.3865C56.933 20.4878 56.8928 20.5849 56.8212 20.6565C56.7496 20.7281 56.6524 20.7684 56.5512 20.7684Z" fill="#3F3D56"/>
<path d="M56.5512 22.4324H49.5491C49.4478 22.4324 49.3507 22.3921 49.2791 22.3205C49.2075 22.2489 49.1672 22.1518 49.1672 22.0505C49.1672 21.9492 49.2075 21.8521 49.2791 21.7805C49.3507 21.7089 49.4478 21.6686 49.5491 21.6686H56.5512C56.6524 21.6686 56.7496 21.7089 56.8212 21.7805C56.8928 21.8521 56.933 21.9492 56.933 22.0505C56.933 22.1518 56.8928 22.2489 56.8212 22.3205C56.7496 22.3921 56.6524 22.4324 56.5512 22.4324Z" fill="#3F3D56"/>
<path d="M16.3548 63.5574C16.2535 63.5574 16.1564 63.5171 16.0848 63.4455C16.0131 63.3739 15.9729 63.2768 15.9729 63.1755V15.4346C15.9729 15.3334 16.0131 15.2362 16.0847 15.1646C16.1564 15.093 16.2535 15.0528 16.3548 15.0528C16.4561 15.0528 16.5532 15.093 16.6248 15.1646C16.6964 15.2362 16.7367 15.3334 16.7367 15.4346V63.1755C16.7366 63.2768 16.6964 63.3739 16.6248 63.4455C16.5532 63.5171 16.456 63.5574 16.3548 63.5574Z" fill="#3F3D56"/>
<path d="M76.4429 55.5141H8.07499C7.97371 55.5141 7.87658 55.4739 7.80496 55.4023C7.73335 55.3307 7.69312 55.2336 7.69312 55.1323C7.69312 55.031 7.73335 54.9339 7.80496 54.8622C7.87658 54.7906 7.97371 54.7504 8.07499 54.7504H76.4429C76.5442 54.7504 76.6413 54.7906 76.7129 54.8622C76.7845 54.9339 76.8248 55.031 76.8248 55.1323C76.8248 55.2336 76.7845 55.3307 76.7129 55.4023C76.6413 55.4739 76.5442 55.5141 76.4429 55.5141Z" fill="#3F3D56"/>
<path d="M19.903 50.8714C19.834 50.8713 19.7662 50.8526 19.707 50.8171C19.6478 50.7816 19.5993 50.7307 19.5667 50.6698C19.5341 50.609 19.5187 50.5404 19.5219 50.4715C19.5252 50.4025 19.5471 50.3358 19.5853 50.2782L26.4458 39.9512C26.4836 39.8956 26.5353 39.8508 26.5956 39.821C26.656 39.7913 26.723 39.7777 26.7902 39.7815C26.8575 39.7862 26.9223 39.8086 26.9782 39.8464C27.034 39.8843 27.0788 39.9363 27.1081 39.9971L30.5558 47.1683L39.9065 28.4806C39.9404 28.411 39.9951 28.3535 40.0629 28.316C40.1308 28.2786 40.2085 28.263 40.2855 28.2714C40.3624 28.279 40.4352 28.3097 40.4943 28.3595C40.5533 28.4093 40.5959 28.4759 40.6163 28.5504L43.9201 40.5969L46.7761 35.5481C46.8111 35.4863 46.8626 35.4354 46.9249 35.4013C46.9872 35.3671 47.0577 35.351 47.1287 35.3547C47.1996 35.3585 47.2681 35.3819 47.3264 35.4224C47.3848 35.463 47.4306 35.5189 47.4589 35.5841L51.3318 44.5112L54.0824 36.7885C54.1065 36.7208 54.1492 36.6613 54.2055 36.6168C54.2619 36.5723 54.3297 36.5446 54.4011 36.5369C54.4726 36.5286 54.5449 36.541 54.6096 36.5725C54.6743 36.6039 54.7286 36.6533 54.7662 36.7146L57.4815 41.0749L67.1119 21.8793C67.1453 21.8127 67.1974 21.7573 67.2619 21.72C67.3263 21.6826 67.4003 21.665 67.4747 21.6692C67.5491 21.6733 67.6206 21.6992 67.6805 21.7435C67.7404 21.7878 67.786 21.8487 67.8117 21.9186L69.6465 26.9065L76.1059 14.7947C76.1295 14.7504 76.1616 14.7113 76.2003 14.6794C76.2391 14.6476 76.2837 14.6237 76.3317 14.6091C76.3797 14.5945 76.43 14.5895 76.48 14.5943C76.5299 14.5992 76.5783 14.6139 76.6226 14.6375C76.6668 14.6611 76.706 14.6932 76.7378 14.7319C76.7697 14.7707 76.7936 14.8153 76.8082 14.8633C76.8228 14.9113 76.8278 14.9616 76.8229 15.0116C76.818 15.0615 76.8034 15.1099 76.7798 15.1542L69.9193 28.018C69.8846 28.083 69.8318 28.1366 69.7674 28.1723C69.703 28.208 69.6296 28.2243 69.5561 28.2192C69.4826 28.2142 69.4121 28.1879 69.3532 28.1437C69.2943 28.0995 69.2494 28.0392 69.2239 27.9701L67.3992 23.0098L57.8589 42.026C57.8284 42.0867 57.7824 42.1381 57.7255 42.1751C57.6685 42.2121 57.6028 42.2332 57.535 42.2363C57.4674 42.2385 57.4004 42.223 57.3405 42.1916C57.2807 42.1601 57.23 42.1136 57.1934 42.0567L54.5363 37.7901L51.7263 45.6793C51.7006 45.7515 51.6538 45.8143 51.5919 45.8596C51.53 45.9048 51.456 45.9304 51.3794 45.9329C51.3028 45.9355 51.2272 45.915 51.1624 45.874C51.0977 45.833 51.0467 45.7735 51.0163 45.7032L47.0634 36.5915L44.1291 41.7787C44.0918 41.8445 44.0359 41.8978 43.9684 41.9318C43.9008 41.9658 43.8247 41.979 43.7497 41.9697C43.6746 41.9604 43.604 41.929 43.5468 41.8795C43.4896 41.8301 43.4484 41.7648 43.4284 41.6918L40.1434 29.7139L30.8904 48.2061C30.8564 48.2682 30.8067 48.3204 30.7462 48.3574C30.6858 48.3945 30.6167 48.4151 30.5459 48.4172C30.4744 48.4166 30.4046 48.396 30.3443 48.3577C30.2839 48.3195 30.2356 48.2651 30.2046 48.2007L26.7105 40.9329L20.2214 50.7008C20.1866 50.7533 20.1393 50.7964 20.0837 50.8262C20.0281 50.856 19.966 50.8715 19.903 50.8714Z" fill="#3F3D56"/>
<path d="M9.731 45.1804C9.62972 45.1804 9.53259 45.1402 9.46098 45.0686C9.38936 44.997 9.34913 44.8998 9.34912 44.7985V22.0505C9.34912 21.9492 9.38935 21.8521 9.46097 21.7805C9.53259 21.7089 9.62972 21.6686 9.731 21.6686C9.83227 21.6686 9.92941 21.7089 10.001 21.7805C10.0726 21.8521 10.1129 21.9492 10.1129 22.0505V44.7985C10.1129 44.8998 10.0726 44.9969 10.001 45.0686C9.92941 45.1402 9.83228 45.1804 9.731 45.1804Z" fill="#3F3D56"/>
<path d="M61.5392 61.4878H61.5336L25.8121 60.9845C25.7108 60.9831 25.6142 60.9415 25.5436 60.8689C25.473 60.7962 25.4342 60.6985 25.4356 60.5972C25.4385 60.4965 25.4806 60.4008 25.5529 60.3305C25.6252 60.2602 25.722 60.2208 25.8229 60.2208L61.5444 60.724C61.6452 60.7254 61.7414 60.7666 61.812 60.8386C61.8825 60.9107 61.9217 61.0077 61.9211 61.1085C61.9204 61.2093 61.8798 61.3058 61.8083 61.3769C61.7367 61.4479 61.64 61.4878 61.5392 61.4878Z" fill="#3F3D56"/>
<path d="M55.7413 71.9447H29.208C28.7593 71.9447 28.3955 72.3085 28.3955 72.7572V74.9761C28.3955 75.4249 28.7593 75.7886 29.208 75.7886H55.7413C56.19 75.7886 56.5537 75.4249 56.5537 74.9761V72.7572C56.5537 72.3085 56.19 71.9447 55.7413 71.9447Z" fill="#3F3D56"/>
<path d="M108.197 104.521L108.617 108.711L101.341 112.266H112.514V104.521H108.197Z" fill="#FFB6B6"/>
<path d="M96.2053 104.521L96.6253 108.711L89.3489 112.266H100.522V104.521H96.2053Z" fill="#FFB6B6"/>
<path d="M107.612 106.671H112.533C112.665 106.671 112.796 106.645 112.917 106.595C113.039 106.545 113.15 106.471 113.243 106.377C113.336 106.284 113.41 106.174 113.46 106.052C113.511 105.93 113.537 105.8 113.537 105.668V88.167C113.537 84.7471 113.152 81.3381 112.39 78.0043C112.254 77.4066 112.199 76.7931 112.228 76.1807C112.443 71.6742 113.244 51.9107 110.997 48.3158L96.6254 47.2547L106.623 105.837C106.663 106.07 106.784 106.282 106.965 106.435C107.146 106.588 107.375 106.671 107.612 106.671Z" fill="#2F2E41"/>
<path d="M91.9455 46.5097C91.9455 46.5097 91.1899 58.7413 91.1899 61.6171V78.5862C91.1899 79.285 91.2243 79.9826 91.2929 80.6789L93.8094 106.196C93.8338 106.444 93.9496 106.674 94.1342 106.842C94.3187 107.009 94.5589 107.101 94.8079 107.101H100.607C100.745 107.101 100.881 107.073 101.008 107.018C101.134 106.963 101.248 106.882 101.342 106.781C101.436 106.68 101.508 106.561 101.554 106.431C101.599 106.301 101.618 106.163 101.608 106.025L100.041 84.4814C99.8969 82.5017 100.03 80.5116 100.436 78.5688L106.765 48.3158L91.9455 46.5097Z" fill="#2F2E41"/>
<path d="M80.8084 27.2024C80.8084 27.2024 80.7557 25.8221 78.633 23.6366C76.5103 21.4511 74.6068 19.9574 75.712 21.799L76.5775 23.1883C76.5775 23.1883 74.2936 22.3027 72.9793 21.6559C72.6334 21.4789 72.2398 21.4176 71.8564 21.4811C71.473 21.5445 71.1202 21.7294 70.8498 22.0085C70.3546 22.5427 70.3696 23.1266 71.7355 24.1627C72.9954 25.1656 74.3884 25.9888 75.8746 26.6087C76.0879 26.6908 76.2679 26.8412 76.3866 27.0365L77.9133 28.2792L80.8084 27.2024Z" fill="#FFB6B6"/>
<path d="M77.9132 23.8334C77.6701 23.7767 77.4347 23.691 77.212 23.5783C76.9877 23.4703 76.7751 23.3396 76.5774 23.1883C76.7037 23.2009 76.828 23.2283 76.948 23.2699C77.0666 23.3085 77.1823 23.3555 77.2942 23.4108C77.5211 23.519 77.7299 23.6615 77.9132 23.8334Z" fill="#DD765E"/>
<path d="M74.7585 23.4105C74.4688 23.3129 74.1851 23.1982 73.9089 23.067C73.6308 22.9407 73.3612 22.7969 73.0959 22.645C72.8303 22.4927 72.5739 22.3248 72.3282 22.1421C72.0789 21.9627 71.8501 21.7565 71.6458 21.5272C72.147 21.8768 72.6651 22.1803 73.1895 22.4836C73.7114 22.7901 74.2406 23.0841 74.7585 23.4105Z" fill="#DD765E"/>
<path d="M74.1916 24.1138C73.8689 24.024 73.5526 23.9125 73.2449 23.78C72.9353 23.6507 72.6338 23.5031 72.3418 23.338C72.0469 23.1745 71.7672 22.985 71.5062 22.7716C71.2352 22.5672 71.0114 22.307 70.8499 22.0085C71.065 22.2594 71.3153 22.4779 71.5929 22.6572C71.8653 22.8411 72.1445 23.0162 72.4339 23.1757C73.0075 23.504 73.6005 23.7996 74.1916 24.1138Z" fill="#DD765E"/>
<path d="M73.5074 24.6414C73.2354 24.5733 72.9691 24.4842 72.7108 24.375C72.4515 24.2686 72.1985 24.147 71.9534 24.0111C71.4566 23.7457 71.0084 23.3981 70.6277 22.9831C70.8627 23.1372 71.0916 23.2907 71.3279 23.4339C71.5665 23.5732 71.8019 23.7159 72.0442 23.8481L73.5074 24.6414Z" fill="#DD765E"/>
<path d="M97.3698 20.1923C97.3698 20.1923 96.2197 20.7065 95.3283 21.1635C94.0927 21.7969 92.174 24.023 89.9286 29.5829L88.4364 33.2777C88.4364 33.2777 83.9572 28.0491 80.0822 24.733L76.2576 27.8364L85.1099 38.0332C85.6826 38.8521 86.4431 39.5219 87.3278 39.9866C89.349 41.0194 91.4128 40.6789 92.5458 38.5783C94.3181 35.2925 96.4252 30.2898 96.6267 28.8958L97.3698 20.1923Z" fill="#6C63FF"/>
<path d="M88.4505 33.3437C88.3892 33.928 88.2906 34.4778 88.268 35.0283C88.2488 35.2996 88.2558 35.5722 88.2888 35.8422C88.326 36.1185 88.4063 36.3872 88.5268 36.6386C88.2836 36.4545 88.1056 36.1975 88.0186 35.9051C87.9287 35.6158 87.8929 35.3123 87.913 35.01C87.9292 34.7139 87.9835 34.421 88.0748 34.1388C88.1594 33.8564 88.286 33.5884 88.4505 33.3437Z" fill="#2F2E41"/>
<path d="M105.641 50.6866C105.641 50.6866 105.641 56.7346 112.314 55.152L111.945 49.7078L105.641 50.6866Z" fill="black"/>
<path d="M88.2275 112.647V112.622C88.2275 112.426 88.2819 112.234 88.3847 112.067C88.4874 111.9 88.6345 111.765 88.8094 111.677L96.3619 107.871C96.4358 107.833 96.5204 107.823 96.601 107.842C96.6815 107.861 96.7529 107.908 96.8026 107.974L98.2789 109.938C98.3312 110.008 98.4076 110.056 98.4932 110.073C98.5788 110.089 98.6675 110.074 98.7423 110.029L100.475 108.989C100.529 108.957 100.59 108.94 100.652 108.939C100.714 108.938 100.776 108.954 100.83 108.985C100.885 109.016 100.93 109.06 100.961 109.114C100.993 109.168 101.009 109.229 101.009 109.292V112.647C101.009 112.741 100.972 112.831 100.906 112.897C100.84 112.963 100.75 113 100.656 113H88.5802C88.4867 113 88.397 112.963 88.3308 112.897C88.2647 112.831 88.2275 112.741 88.2275 112.647Z" fill="#2F2E41"/>
<path d="M100.219 112.647V112.622C100.219 112.426 100.273 112.234 100.376 112.067C100.479 111.9 100.626 111.765 100.801 111.677L108.353 107.871C108.427 107.833 108.512 107.823 108.592 107.842C108.673 107.861 108.744 107.908 108.794 107.974L110.27 109.938C110.323 110.008 110.399 110.056 110.485 110.073C110.57 110.089 110.659 110.074 110.734 110.029L112.466 108.989C112.52 108.957 112.581 108.94 112.643 108.939C112.706 108.938 112.767 108.954 112.822 108.985C112.876 109.016 112.921 109.06 112.953 109.114C112.984 109.168 113.001 109.229 113.001 109.292V112.647C113.001 112.741 112.963 112.831 112.897 112.897C112.831 112.963 112.741 113 112.648 113H100.572C100.478 113 100.388 112.963 100.322 112.897C100.256 112.831 100.219 112.741 100.219 112.647Z" fill="#2F2E41"/>
<path d="M101.939 5.92732C100.919 5.772 99.8763 5.86135 98.8975 6.18802C98.4387 6.3507 96.7607 6.94563 95.9428 8.53431C95.6322 9.13766 95.562 9.86348 95.4214 11.3151C95.3337 12.2218 94.9845 12.8712 94.985 13.9771C95.0032 14.8731 95.1501 15.7619 95.4214 16.616C95.8281 17.9529 95.5662 18.7124 95.769 18.9623C96.5863 19.9695 98.3388 19.0385 98.376 20.3527C98.399 21.1642 97.8834 21.6778 98.5607 22.4057C99.4007 23.3083 102.591 22.9667 103.764 22.3514C103.924 22.2675 106.268 21.0059 106.11 19.5706C106.026 18.8039 105.308 18.7246 104.807 17.5719C104.486 16.7728 104.395 15.8997 104.546 15.0518C104.772 13.374 105.617 13.1694 106.284 11.1413C106.465 10.6321 106.512 10.085 106.421 9.55245C106.329 9.01988 106.103 8.51968 105.763 8.0998C104.782 6.94968 103.429 6.18071 101.939 5.92732Z" fill="#FFB6B6"/>
<path d="M97.78 49.9916C98.0935 49.9916 98.3476 49.7375 98.3476 49.424C98.3476 49.1106 98.0935 48.8565 97.78 48.8565C97.4665 48.8565 97.2124 49.1106 97.2124 49.424C97.2124 49.7375 97.4665 49.9916 97.78 49.9916Z" fill="#5D1115"/>
<path d="M103.266 12.2105C103.396 12.2044 103.526 12.2269 103.647 12.2765C103.768 12.3261 103.876 12.4015 103.965 12.4975C104.054 12.5905 104.132 12.6941 104.196 12.8061C104.258 12.9177 104.305 13.0374 104.334 13.1618C104.191 12.9633 104.034 12.7754 103.864 12.5994C103.782 12.5135 103.691 12.4371 103.592 12.3718C103.491 12.3029 103.381 12.2486 103.266 12.2105Z" fill="#DD765E"/>
<path d="M103.542 13.9772C103.41 13.729 103.364 13.4443 103.411 13.1672C103.457 12.89 103.594 12.636 103.8 12.4446C103.745 12.572 103.685 12.6891 103.646 12.8146C103.6 12.936 103.569 13.062 103.551 13.1904C103.508 13.4507 103.505 13.716 103.542 13.9772Z" fill="#DD765E"/>
<path d="M91.7891 40.0763C91.6561 38.8144 91.6183 37.5442 91.6759 36.2766C91.7099 35.0063 91.8692 33.7425 92.1513 32.5035C92.1242 33.7742 92.079 35.0295 92.031 36.2909C91.9758 37.5513 91.922 38.8115 91.7891 40.0763Z" fill="#2F2E41"/>
<path d="M91.7596 48.2262C92.4608 48.6778 93.2182 49.0355 94.0124 49.2902C94.7986 49.5603 95.6021 49.7769 96.4176 49.9385C98.0476 50.2717 99.7038 50.4608 101.367 50.5038C102.197 50.5667 103.031 50.5345 103.863 50.5468C104.696 50.5307 105.528 50.475 106.362 50.4504C107.193 50.3838 108.026 50.3291 108.857 50.2526C109.688 50.1663 110.518 50.0676 111.352 49.9917C110.53 50.1473 109.704 50.2804 108.878 50.4257C108.049 50.5376 107.215 50.6232 106.382 50.7232C105.547 50.7912 104.709 50.8373 103.871 50.8704C103.031 50.8686 102.192 50.9128 101.352 50.8586C99.6702 50.8017 97.9978 50.5825 96.358 50.2042C94.736 49.8012 93.0907 49.2614 91.7596 48.2262Z" fill="#5D1115"/>
<path d="M97.1541 50.2356C97.5702 52.2482 97.948 54.2673 98.3199 56.2874C98.6927 58.3074 99.0339 60.3327 99.3924 62.3551C99.7226 64.3823 100.068 66.4069 100.384 68.4365L100.851 71.4821C100.994 72.4995 101.148 73.5148 101.281 74.534C101.069 73.5283 100.88 72.5188 100.679 71.5113L100.114 68.4823C99.7423 66.4622 99.3999 64.4371 99.0423 62.4146C98.713 60.3872 98.3665 58.3628 98.0515 56.333C97.7356 54.3033 97.4256 52.2727 97.1541 50.2356Z" fill="#5D1115"/>
<path d="M94.2826 47.7213C94.4069 48.0866 94.467 48.4706 94.4603 48.8564C94.4678 49.2423 94.4076 49.6265 94.2826 49.9917C94.1575 49.6265 94.0974 49.2423 94.1049 48.8564C94.0981 48.4706 94.1583 48.0866 94.2826 47.7213Z" fill="#5D1115"/>
<path d="M102.958 48.6468C103.132 49.0542 103.243 49.4855 103.288 49.9261C103.348 50.3651 103.34 50.8106 103.266 51.2473C103.091 50.8402 102.98 50.4088 102.935 49.968C102.876 49.529 102.884 49.0835 102.958 48.6468Z" fill="#5D1115"/>
<path d="M98.4697 50.4457C98.7044 51.2433 98.8957 52.053 99.0425 52.8713C99.1925 53.6867 99.3161 54.5063 99.4057 55.3316L99.4149 55.4159L99.3563 55.455C98.9692 55.7136 98.5736 55.9608 98.1656 56.1916C98.4999 55.8631 98.8465 55.5508 99.2017 55.25L99.1523 55.3733C98.9722 54.563 98.826 53.7471 98.7062 52.9268C98.5825 52.1047 98.5036 51.2764 98.4697 50.4457Z" fill="#5D1115"/>
<path d="M111.352 63.5463C111.337 64.1478 111.262 64.7463 111.128 65.3328C111 65.9237 110.819 66.5015 110.585 67.059C110.353 67.6217 110.049 68.1523 109.681 68.6375C109.313 69.1231 108.843 69.5224 108.305 69.8075C108.749 69.4206 109.137 68.9725 109.455 68.4767C109.767 67.9821 110.036 67.4615 110.258 66.9207C110.487 66.3782 110.688 65.8245 110.861 65.2617C111.033 64.6966 111.204 64.1275 111.352 63.5463Z" fill="#5D1115"/>
<path d="M111.352 67.6746C111.252 68.0976 111.104 68.5077 110.911 68.8969C110.721 69.2885 110.498 69.6634 110.246 70.0176C109.75 70.7409 109.083 71.3305 108.305 71.7341C108.61 71.4233 108.908 71.126 109.181 70.8037C109.449 70.4793 109.717 70.1556 109.957 69.8097C110.452 69.1271 110.895 68.4099 111.352 67.6746Z" fill="#5D1115"/>
<path d="M98.3658 84.1362C98.3511 84.7377 98.2761 85.3363 98.1419 85.9228C98.0146 86.5137 97.833 87.0914 97.5995 87.6489C97.3671 88.2117 97.0633 88.7422 96.6955 89.2274C96.3274 89.713 95.8576 90.1123 95.3191 90.3975C95.7636 90.0105 96.1509 89.5625 96.4693 89.0666C96.7812 88.572 97.0498 88.0514 97.2721 87.5106C97.5009 86.9681 97.7021 86.4144 97.8748 85.8516C98.0478 85.2866 98.2187 84.7174 98.3658 84.1362Z" fill="#5D1115"/>
<path d="M98.3658 88.2645C98.2662 88.6875 98.1183 89.0977 97.9249 89.4869C97.7352 89.8785 97.5127 90.2534 97.2598 90.6075C96.7642 91.3308 96.0975 91.9205 95.3191 92.324C95.6247 92.0132 95.9218 91.716 96.1948 91.3936C96.4637 91.0692 96.7308 90.7455 96.9716 90.3997C97.4662 89.7171 97.9089 88.9999 98.3658 88.2645Z" fill="#5D1115"/>
<path d="M104.451 55.3525C104.368 56.0502 104.361 56.7549 104.431 57.454C104.468 58.1272 104.73 58.7685 105.175 59.2743C105.634 59.7405 106.344 59.8459 107.021 59.8047C107.719 59.736 108.408 59.5922 109.076 59.3759C108.446 59.726 107.76 59.9645 107.049 60.0808C106.681 60.1361 106.306 60.1283 105.94 60.0579C105.559 59.9806 105.209 59.7975 104.928 59.5297C104.422 58.9662 104.146 58.2332 104.156 57.4761C104.131 56.7565 104.231 56.038 104.451 55.3525Z" fill="#5D1115"/>
<path d="M98.9194 20.4628C98.9194 20.4628 99.7277 24.5543 105.463 18.5582L110.997 21.9821C112.25 22.7787 113.254 23.91 113.897 25.248C116.085 29.8768 117.365 34.8817 117.668 39.9922C117.668 39.9922 118.45 45.1423 110.803 55.2981C110.803 55.2981 106.806 56.0687 105.85 51.8106L108.305 48.4215C108.305 48.4215 95.3347 49.6381 91.9456 46.5097C91.9456 46.5097 90.1715 24.3374 97.681 19.9183L98.9194 20.4628Z" fill="#6C63FF"/>
<path d="M108.543 29.8248C108.696 30.7903 108.837 31.757 108.968 32.725C109.094 33.6934 109.232 34.6605 109.347 35.6301L109.693 38.539C109.813 39.5081 109.902 40.4807 110.008 41.4514L110.01 41.4674L110.009 41.4808C109.908 42.6757 109.725 43.8621 109.461 45.0319C109.222 46.2064 108.833 47.3455 108.305 48.4215C108.731 47.3112 109.044 46.1605 109.239 44.9871C109.345 44.4029 109.429 43.8149 109.5 43.2258C109.578 42.6383 109.643 42.0457 109.685 41.4582L109.686 41.4875C109.574 40.5174 109.446 39.5492 109.349 38.5775L109.043 35.6642C108.941 34.693 108.862 33.7193 108.771 32.747C108.685 31.7742 108.609 30.8001 108.543 29.8248Z" fill="#2F2E41"/>
<path d="M107.177 30.7808C107.563 31.1027 107.905 31.4747 108.193 31.8868C108.494 32.2902 108.739 32.7321 108.921 33.2008C108.534 32.8794 108.193 32.5074 107.905 32.0947C107.605 31.691 107.36 31.2491 107.177 30.7808Z" fill="#2F2E41"/>
<path d="M109.847 41.4694C110.243 41.4654 110.595 41.5061 110.947 41.5203C111.123 41.5301 111.295 41.5284 111.471 41.5267C111.646 41.5166 111.819 41.4974 112.02 41.4694C111.888 41.6241 111.716 41.7384 111.523 41.7993C111.331 41.8578 111.131 41.8836 110.931 41.8753C110.735 41.8641 110.541 41.8249 110.356 41.7592C110.169 41.6969 109.996 41.5984 109.847 41.4694Z" fill="#2F2E41"/>
<path d="M100.149 21.7563C99.7954 22.8239 99.4557 23.8951 99.156 24.978C98.8405 26.0559 98.5496 27.1403 98.2834 28.2311C97.747 30.4107 97.2781 32.6061 96.927 34.8213C96.5683 37.0347 96.3329 39.2663 96.2218 41.5058C96.2027 42.6258 96.1502 43.748 96.2238 44.8679C96.2203 45.993 96.3911 47.1033 96.4828 48.2262C96.0854 46.0061 95.9064 43.7524 95.9484 41.4974C96.0184 39.2424 96.2281 36.994 96.5763 34.7649C96.9586 32.5429 97.4247 30.3354 98.0199 28.1624C98.604 25.9872 99.315 23.8482 100.149 21.7563Z" fill="#2F2E41"/>
<path d="M97.681 19.9183C97.5486 20.5117 97.4287 21.1074 97.351 21.7072C97.2491 22.2932 97.2422 22.8917 97.3306 23.4799C97.3939 23.7639 97.5583 23.9617 97.8064 23.8914C98.0739 23.8093 98.3214 23.6727 98.5337 23.4904C98.9931 23.1077 99.4198 22.6874 99.8092 22.2336L100.071 21.9414L100.099 22.3392C100.121 22.7475 100.227 23.1468 100.411 23.512C100.49 23.6841 100.61 23.8335 100.762 23.9465C100.913 24.0595 101.091 24.1324 101.278 24.1583C101.682 24.1715 102.081 24.0737 102.433 23.8755C102.811 23.6831 103.167 23.4526 103.498 23.1876C104.83 22.0882 106.062 20.8714 107.177 19.5518C106.661 20.2492 106.13 20.9382 105.552 21.5895C104.978 22.2489 104.353 22.8629 103.684 23.426C103.342 23.7086 102.971 23.9555 102.578 24.1627C102.173 24.3962 101.711 24.5121 101.243 24.4972C100.999 24.4696 100.765 24.3796 100.565 24.2361C100.365 24.0925 100.205 23.9 100.101 23.6771C99.8976 23.2629 99.784 22.8106 99.7671 22.3495L100.057 22.4551C99.6481 22.9179 99.2007 23.3455 98.7198 23.7333C98.4681 23.9456 98.1691 24.0941 97.8479 24.1665C97.7529 24.186 97.6545 24.1812 97.5619 24.1525C97.4693 24.1238 97.3854 24.0722 97.3181 24.0024C97.2012 23.8706 97.125 23.7079 97.0987 23.5337C97.0466 23.2231 97.0377 22.9067 97.0722 22.5936C97.0988 22.2877 97.1441 21.9837 97.2077 21.6834C97.3292 21.0859 97.4873 20.4964 97.681 19.9183Z" fill="#2F2E41"/>
<path d="M98.713 29.4335C98.9136 29.4335 99.0762 29.2709 99.0762 29.0704C99.0762 28.8698 98.9136 28.7072 98.713 28.7072C98.5125 28.7072 98.3499 28.8698 98.3499 29.0704C98.3499 29.2709 98.5125 29.4335 98.713 29.4335Z" fill="#5D1115"/>
<path d="M99.8026 25.2169C100.003 25.2169 100.166 25.0543 100.166 24.8537C100.166 24.6531 100.003 24.4905 99.8026 24.4905C99.6021 24.4905 99.4395 24.6531 99.4395 24.8537C99.4395 25.0543 99.6021 25.2169 99.8026 25.2169Z" fill="#5D1115"/>
<path d="M97.8078 34.3773C98.0083 34.3773 98.1709 34.2147 98.1709 34.0142C98.1709 33.8136 98.0083 33.651 97.8078 33.651C97.6072 33.651 97.4446 33.8136 97.4446 34.0142C97.4446 34.2147 97.6072 34.3773 97.8078 34.3773Z" fill="#5D1115"/>
<path d="M97.0641 39.5942C97.2647 39.5942 97.4273 39.4316 97.4273 39.2311C97.4273 39.0305 97.2647 38.8679 97.0641 38.8679C96.8635 38.8679 96.7009 39.0305 96.7009 39.2311C96.7009 39.4316 96.8635 39.5942 97.0641 39.5942Z" fill="#5D1115"/>
<path d="M96.8363 45.3068C97.0369 45.3068 97.1995 45.1442 97.1995 44.9436C97.1995 44.743 97.0369 44.5804 96.8363 44.5804C96.6357 44.5804 96.4731 44.743 96.4731 44.9436C96.4731 45.1442 96.6357 45.3068 96.8363 45.3068Z" fill="#5D1115"/>
<path d="M98.1538 20.289C98.1538 20.289 100.559 20.3336 101.934 18.4217C102.59 17.5103 102.591 15.6663 102.527 14.5937C102.498 14.1129 102.573 13.6315 102.749 13.1829C102.992 12.563 103.29 11.7185 103.897 11.6622C104.343 11.6208 104.523 11.5029 104.684 11.934C104.95 12.6473 104.488 13.4342 104.166 13.9822C103.706 14.7664 103.315 14.9376 103.308 15.4802C103.302 15.8941 103.965 16.5827 104.24 16.613C104.704 16.6643 104.914 15.2554 106.16 12.9054C106.947 11.4215 107.308 11.1431 107.399 10.2168C107.432 9.88788 107.566 8.52619 106.746 7.73422C106.366 7.36688 106.15 7.47879 104.497 6.77887C104.038 6.5968 103.589 6.38995 103.153 6.15921C101.836 5.44001 101.865 5.07008 101.095 4.85107C100.399 4.65326 100.358 4.95041 99.0287 4.87171C97.7474 4.79588 97.6338 4.51061 97.0414 4.67953C96.013 4.97278 95.5191 6.07122 95.3864 6.36637C95.1217 6.87729 94.9855 7.44507 94.9896 8.02051C95.0461 8.60431 95.2623 9.16128 95.6145 9.63029C95.7816 9.80046 96.4591 8.81956 96.8282 8.45054C97.1902 8.08901 97.6014 8.23704 98.1618 8.27188C98.7081 8.30586 98.6782 8.64614 99.4864 8.9449C99.7743 9.05133 100.928 8.53443 101.301 9.17299C101.697 9.85337 102.006 9.93581 101.82 10.5689C101.703 10.9644 101.775 11.4504 101.919 12.4223C102.023 13.1198 101.458 15.556 101.458 15.556C101.409 15.6571 101.34 15.7474 101.255 15.8216C101.17 15.8959 101.072 15.9526 100.965 15.9885C100.858 16.0245 100.746 16.039 100.633 16.0311C100.521 16.0233 100.412 15.9932 100.311 15.9428C99.6995 15.628 99.0675 15.3548 98.4193 15.1251C98.0322 14.9932 97.6206 14.9489 97.2142 14.9954C96.8078 15.0418 96.4168 15.1779 96.0694 15.3938C95.828 15.5413 95.5799 15.7066 95.3835 15.8557C95.253 15.9549 95.149 16.0846 95.0805 16.2334C95.0121 16.3823 94.9813 16.5457 94.991 16.7092C95.0624 17.7548 95.4963 20.3124 98.1538 20.289ZM95.8684 16.6563C95.9674 16.1582 96.7104 15.9645 97.1345 15.8544C97.4703 15.7359 97.8343 15.723 98.1776 15.8175C98.2591 15.8427 98.9975 16.0964 99.0643 16.6913C99.1313 17.2863 98.4678 17.7012 98.3638 17.7635C98.1155 17.9127 97.8332 17.9959 97.5436 18.0051C97.2541 18.0143 96.967 17.9492 96.7097 17.816C96.3287 17.6191 95.7717 17.135 95.8684 16.6563Z" fill="#1E1D22"/>
</svg>
