<svg width="150" height="108" viewBox="0 0 150 108" fill="none" xmlns="http://www.w3.org/2000/svg">
<g clip-path="url(#clip0_7118_8053)">
<path d="M26.5839 83.3583C26.3717 82.9739 25.4538 83.3855 25.2851 83.0367C25.1169 82.6891 25.9698 82.1595 26.457 80.9496C26.5449 80.7314 27.0986 79.3565 26.6887 78.9323C25.9117 78.1281 22.3562 81.4467 21.112 80.3607C20.8389 80.1224 20.6482 79.6466 19.8217 78.8741C19.493 78.5668 19.2941 78.4281 19.1017 78.4797C18.8287 78.5529 18.8071 78.9455 18.5144 79.7174C18.0753 80.8749 17.8157 80.805 17.5599 81.7286C17.37 82.4142 17.4133 82.8128 17.1899 82.8904C16.8737 83.0003 16.5826 82.2731 16.1819 82.3382C15.773 82.4047 15.5258 83.2514 15.4477 83.8853C15.3011 85.075 15.7078 85.8599 15.9331 86.6854C16.1781 87.5824 16.3234 88.9466 15.7578 90.8778L10.1594 107.825C11.3954 104.347 14.974 94.8146 16.4778 91.2722C16.9119 90.2496 17.3912 89.2124 18.3754 88.803C19.3229 88.4089 20.6243 88.6442 22.2833 88.2148C22.477 88.1647 23.0147 88.0177 23.0824 87.6779C23.1383 87.397 22.8221 87.2402 22.8707 86.9771C22.9358 86.6242 23.5578 86.6199 24.322 86.2128C24.861 85.9257 25.1967 85.5843 25.4854 85.2906C25.5725 85.2021 26.8664 83.87 26.5839 83.3583Z" fill="#F2F2F2"/>
<path d="M4.55829 92.2798C4.32147 92.2808 4.24465 92.8836 4.0366 92.8719C3.82929 92.8603 3.83342 92.2578 3.42132 91.6517C3.34701 91.5425 2.87868 90.8538 2.5666 90.9475C1.97506 91.1252 2.46519 93.9575 1.61008 94.3003C1.42242 94.3756 1.15002 94.3389 0.558694 94.5518C0.323447 94.6365 0.202705 94.7013 0.170769 94.8176C0.125458 94.9827 0.298545 95.1074 0.566686 95.4845C0.968816 96.05 0.86196 96.1668 1.21005 96.5681C1.46846 96.8661 1.66307 96.9582 1.63406 97.0984C1.59303 97.2969 1.17685 97.2405 1.09097 97.4706C1.00334 97.7054 1.3188 98.0801 1.58587 98.3042C2.08705 98.7247 2.56298 98.7368 3.00509 98.8561C3.48554 98.9858 4.15069 99.3027 4.86971 100.158L10.9961 108C9.76416 106.345 6.442 101.707 5.25764 99.8923C4.91573 99.3684 4.5802 98.8163 4.67716 98.1793C4.7705 97.5659 5.25347 96.9476 5.53599 95.9489C5.56899 95.8322 5.65698 95.5063 5.5213 95.3726C5.40912 95.262 5.24624 95.3835 5.14008 95.282C4.99767 95.1458 5.17514 94.8166 5.20966 94.2961C5.234 93.9291 5.1749 93.6536 5.12408 93.4166C5.10876 93.3451 4.87353 92.2785 4.55829 92.2798Z" fill="#F2F2F2"/>
<path d="M9.28282 93.4192L9.14014 92.0508L9.20533 91.9471C9.50698 91.4674 9.66073 90.9989 9.66257 90.5543C9.66288 90.4836 9.6598 90.4129 9.65673 90.3408C9.64443 90.0554 9.62906 89.7006 9.80126 89.287C9.89781 89.0564 10.169 88.5225 10.5768 88.5885C10.6865 88.6051 10.7696 88.6592 10.8326 88.7227C10.8418 88.7068 10.8514 88.691 10.8615 88.6738C10.9885 88.4656 11.0891 88.3764 11.1859 88.2905C11.2603 88.2245 11.3372 88.1564 11.4578 87.9952C11.5106 87.9245 11.5518 87.8624 11.5866 87.8102C11.6921 87.6523 11.8298 87.464 12.0728 87.4673C12.3323 87.4805 12.4682 87.7111 12.5583 87.8637C12.7191 88.1359 12.792 88.3322 12.8403 88.4623C12.8578 88.5099 12.8778 88.5634 12.8879 88.58C12.9716 88.7121 13.6515 88.5885 13.9076 88.5436C14.4829 88.4405 14.9808 88.3513 15.1859 88.7412C15.3329 89.02 15.2237 89.3887 14.8516 89.8664C14.7357 90.0151 14.6124 90.1281 14.5029 90.2166C14.5936 90.2748 14.6748 90.364 14.7077 90.504C14.7852 90.8357 14.5198 91.1681 13.9193 91.4932C13.7701 91.5744 13.5694 91.6828 13.288 91.735C13.1555 91.7595 13.0361 91.7654 12.9341 91.7687C12.9319 91.8321 12.9181 91.9009 12.8821 91.9716C12.7766 92.1797 12.5571 92.2788 12.2262 92.255C11.8621 92.2345 11.5623 92.1599 11.2979 92.0945C11.0669 92.0376 10.868 91.9894 10.7118 92.0006C10.4221 92.0257 10.1989 92.2748 9.93688 92.5979L9.28282 93.4192Z" fill="#F2F2F2"/>
<path d="M9.9447 85.2718L8.74888 85.7671L8.63895 85.7257C8.13055 85.5339 7.66978 85.4929 7.26895 85.6038C7.20522 85.6214 7.14235 85.6425 7.07828 85.664C6.82442 85.7492 6.50886 85.8552 6.09279 85.7811C5.86068 85.7393 5.31122 85.5928 5.26728 85.1523C5.25431 85.0341 5.28203 84.934 5.32316 84.8524C5.30654 84.8469 5.28984 84.841 5.2718 84.8348C5.0522 84.7556 4.94639 84.6737 4.84448 84.5949C4.76611 84.5343 4.68534 84.4717 4.50962 84.3873C4.43255 84.3502 4.36618 84.3232 4.31037 84.3003C4.14144 84.2308 3.93695 84.1354 3.87831 83.8821C3.82438 83.609 3.99752 83.4093 4.11209 83.2769C4.31639 83.0407 4.47458 82.9152 4.57953 82.832C4.61791 82.8017 4.66103 82.7674 4.67333 82.7526C4.77109 82.6322 4.4874 81.957 4.38198 81.7022C4.14324 81.1304 3.93666 80.6357 4.23562 80.3236C4.44937 80.1002 4.80901 80.1201 5.33349 80.3856C5.49675 80.4684 5.62975 80.5678 5.73723 80.6591C5.76657 80.5501 5.82629 80.4431 5.94406 80.3734C6.22304 80.2087 6.58958 80.4002 7.03459 80.9419C7.14559 81.0763 7.29409 81.2574 7.41245 81.5366C7.46807 81.6681 7.50369 81.7906 7.53257 81.8959C7.59022 81.882 7.65559 81.879 7.72838 81.8984C7.94252 81.9553 8.08744 82.1583 8.14995 82.5082C8.22386 82.8918 8.23268 83.2223 8.24087 83.5137C8.24828 83.7681 8.25532 83.9871 8.30506 84.1466C8.40114 84.4412 8.68203 84.6101 9.03939 84.8004L9.9447 85.2718Z" fill="#F2F2F2"/>
<path d="M9.28282 81.2404L9.14014 79.872L9.20533 79.7683C9.50698 79.2886 9.66073 78.8201 9.66257 78.3754C9.66288 78.3047 9.6598 78.234 9.65673 78.162C9.64443 77.8766 9.62906 77.5218 9.80126 77.1081C9.89781 76.8775 10.169 76.3436 10.5768 76.4097C10.6865 76.4262 10.7696 76.4804 10.8326 76.5438C10.8418 76.528 10.8514 76.5121 10.8615 76.495C10.9885 76.2868 11.0891 76.1976 11.1859 76.1117C11.2603 76.0456 11.3372 75.9776 11.4578 75.8164C11.5106 75.7457 11.5518 75.6836 11.5866 75.6314C11.6921 75.4734 11.8298 75.2851 12.0728 75.2884C12.3323 75.3017 12.4682 75.5322 12.5583 75.6849C12.7191 75.9571 12.792 76.1534 12.8403 76.2835C12.8578 76.3311 12.8778 76.3846 12.8879 76.4011C12.9716 76.5333 13.6515 76.4097 13.9076 76.3648C14.4829 76.2617 14.9808 76.1725 15.1859 76.5623C15.3329 76.8412 15.2237 77.2099 14.8516 77.6876C14.7357 77.8363 14.6124 77.9492 14.5029 78.0378C14.5936 78.0959 14.6748 78.1851 14.7077 78.3252C14.7852 78.6569 14.5198 78.9893 13.9193 79.3144C13.7701 79.3956 13.5694 79.504 13.288 79.5562C13.1555 79.5806 13.0361 79.5866 12.9341 79.5899C12.9319 79.6533 12.9181 79.722 12.8821 79.7927C12.7766 80.0009 12.5571 80.1 12.2262 80.0762C11.8621 80.0557 11.5623 79.981 11.2979 79.9156C11.0669 79.8588 10.868 79.8106 10.7118 79.8218C10.4221 79.8469 10.1989 80.096 9.93688 80.4191L9.28282 81.2404Z" fill="#F2F2F2"/>
<path d="M10.586 107.802L10.3191 107.623L10.0079 107.661C10.003 107.63 9.9861 107.558 9.96059 107.447C9.82129 106.835 9.39664 104.973 9.04239 102.041C8.79516 99.9936 8.65525 97.8892 8.62634 95.7847C8.59744 93.6769 8.69031 92.0812 8.76472 90.7987C8.82099 89.8314 8.88926 88.9103 8.95629 88.013C9.13464 85.6159 9.30284 83.3515 9.17769 80.8446C9.15001 80.285 9.09189 79.1201 8.45845 77.8805C8.09098 77.1616 7.58484 76.5234 6.95386 75.9842L7.34622 75.4543C8.04271 76.0503 8.60266 76.7573 9.01072 77.5555C9.71304 78.9298 9.77639 80.1991 9.80683 80.809C9.93413 83.3601 9.76409 85.6463 9.58389 88.0666C9.51747 88.9606 9.44921 89.8777 9.39324 90.841C9.31944 92.1117 9.2275 93.6935 9.2561 95.7741C9.28439 97.8535 9.42276 99.9322 9.66661 101.953C10.0165 104.849 10.4351 106.683 10.5725 107.286C10.6457 107.607 10.6611 107.675 10.586 107.802Z" fill="#F2F2F2"/>
<path d="M5.79889 77.0592C5.77306 77.0592 5.74693 77.0586 5.72048 77.0566C5.1842 77.0255 4.6876 76.6806 4.24418 76.0318C4.03632 75.7265 3.92992 75.3783 3.71774 74.6839C3.68484 74.5768 3.52494 74.0337 3.42777 73.2864C3.36411 72.7981 3.37211 72.5939 3.46221 72.4135C3.56215 72.2127 3.72389 72.0726 3.90593 71.9781C3.89794 71.9134 3.90439 71.8466 3.93053 71.7786C4.03785 71.4964 4.32321 71.5334 4.47757 71.5513C4.55568 71.5618 4.65315 71.5757 4.75832 71.5698C4.92376 71.5612 5.01263 71.5083 5.14731 71.429C5.27615 71.353 5.43635 71.2586 5.67405 71.2064C6.14268 71.1013 6.53536 71.244 6.66481 71.2909C7.34592 71.5347 7.68171 72.1036 8.07039 72.7624C8.14788 72.8946 8.41386 73.3756 8.58944 74.035C8.71613 74.5107 8.6983 74.7222 8.66017 74.8794C8.58267 75.2025 8.39972 75.3875 7.93508 75.7959C7.44985 76.2234 7.20632 76.4375 6.99721 76.5676C6.51045 76.8696 6.20479 77.0592 5.79889 77.0592Z" fill="#F2F2F2"/>
<path d="M146.521 107.495C146.521 107.62 146.427 107.721 146.31 107.721H0V107.268H146.31C146.427 107.268 146.521 107.369 146.521 107.495Z" fill="#E6E6E6"/>
<path d="M104.283 35.8007C104.283 35.8007 96.4077 36.8183 97.7362 30.1282C99.0646 23.4381 106.597 11.081 106.597 11.081L110.871 13.6564L105.964 26.119L108.077 27.9095L104.283 35.8007Z" fill="#FFB6B6"/>
<path d="M130.092 27.656L128.983 37.4624L101.174 37.316L106.759 26.8873L130.092 27.656Z" fill="#6C63FF"/>
<path d="M113.566 11.6021C115.268 9.04852 115.405 6.02217 113.871 4.84254C112.338 3.66292 109.715 4.77671 108.013 7.33027C106.311 9.88384 106.175 12.9102 107.708 14.0898C109.242 15.2694 111.864 14.1556 113.566 11.6021Z" fill="#FFB6B6"/>
<path d="M127.418 65.0431V107.602H129.126V65.0431H127.418Z" fill="#3F3D56"/>
<path d="M119.223 65.0431V107.602H120.93V65.0431H119.223Z" fill="#3F3D56"/>
<path d="M73.2935 38.2607V107.602H75.0009V38.2607H73.2935Z" fill="#E6E6E6"/>
<path d="M100.783 65.0431V107.602H102.49V65.0431H100.783Z" fill="#3F3D56"/>
<path d="M94.2488 65.0431V107.602H95.9562V65.0431H94.2488Z" fill="#3F3D56"/>
<path d="M125.882 64.1259H92.9099L86.585 73.7648L119.394 75.8662L125.882 64.1259Z" fill="#3F3D56"/>
<path d="M65.507 31.1475L65.6568 24.1574L45.7571 25.8019L45.6553 30.5385L65.507 31.1475Z" fill="#FFB6B6"/>
<path d="M52.039 24.9667L51.0873 27.4268L49.7204 27.4737C49.7204 27.4737 51.3208 28.0003 51.7654 31.1248L50.452 31.5477C50.452 31.5477 49.1908 32.812 46.833 32.6894L40.5113 32.1212L40.487 29.7535L44.8562 29.211C44.8562 29.211 45.8298 28.5229 41.0104 25.6938C41.0104 25.6938 39.4139 24.6449 40.8497 19.4653C41.0471 18.7534 41.6432 18.2421 42.3344 18.2261C42.7159 18.2172 43.0733 18.3644 43.216 18.8735C43.5792 20.1693 43.2117 21.461 44.2099 22.2699C45.208 23.0787 52.039 24.9667 52.039 24.9667Z" fill="#2F2E41"/>
<path d="M123.414 57.8717C123.414 57.8717 116.548 70.4184 101.011 68.1572C97.3141 67.6191 94.0613 65.2574 92.2081 61.7783C88.6262 55.0537 83.1871 43.2792 84.9504 36.612L58.6734 31.2238L56.603 24.3675L85.0415 20.3985C87.5569 20.0475 90.021 21.3617 91.2815 23.7267L105.135 49.7191L109.264 50.2036L123.414 57.8717Z" fill="#2F2E41"/>
<path d="M66.0257 34.0091L65.6516 27.0286L45.9395 30.3879L46.1927 35.118L66.0257 34.0091Z" fill="#FFB6B6"/>
<path d="M52.1384 29.0124L51.3739 31.5468L50.015 31.7117C50.015 31.7117 51.6496 32.0982 52.3268 35.1742L51.0494 35.7093C51.0494 35.7093 49.8869 37.0785 47.5275 37.16L41.1838 37.1402L40.9823 34.7822L45.2967 33.8638C45.2967 33.8638 46.2156 33.0938 41.2 30.6904C41.2 30.6904 39.5301 29.7829 40.5734 24.496C40.7168 23.7694 41.2727 23.2082 41.9605 23.1325C42.3401 23.0906 42.7074 23.2065 42.8877 23.7016C43.3468 24.9617 43.0772 26.2811 44.1327 27.001C45.1882 27.721 52.1384 29.0124 52.1384 29.0124Z" fill="#2F2E41"/>
<path d="M125.746 55.6413C125.746 55.6413 119.842 68.7408 104.186 67.8299C100.461 67.6131 97.0416 65.5403 94.9339 62.2326C90.86 55.8394 84.5569 44.5733 85.8152 37.7752L59.2199 34.6758L56.6428 28.0207L84.6919 21.6064C87.1729 21.0391 89.7274 22.1361 91.1609 24.3845L106.915 49.0952L111.068 49.2211L125.746 55.6413Z" fill="#2F2E41"/>
<path d="M107.748 0.325722L106.382 1.42637L113.553 12.066L114.919 11.6991L107.748 0.325722Z" fill="#3F3D56"/>
<path d="M126.394 23.9522L134.248 23.5854L137.663 40.0951C137.663 40.0951 130.492 69.0788 121.955 67.9782C121.955 67.9782 116.662 63.759 116.662 62.2915C116.662 60.824 109.491 57.1551 109.491 57.1551L107.783 50.9181L112.905 42.4798C112.905 42.4798 114.954 35.8759 121.784 32.2071L126.394 23.9522Z" fill="#6C63FF"/>
<path d="M81.4891 36.7931H11.656V38.6276H45.8042V107.602H47.5116V38.6276H81.4891V36.7931Z" fill="#E6E6E6"/>
<path d="M130.492 22.4847C135.584 22.4847 139.712 18.0497 139.712 12.5789C139.712 7.10804 135.584 2.67304 130.492 2.67304C125.4 2.67304 121.272 7.10804 121.272 12.5789C121.272 18.0497 125.4 22.4847 130.492 22.4847Z" fill="#FFB6B6"/>
<path d="M98.3441 25.2363L91.9043 27.988L104.539 45.9652L108.978 42.2964L98.3441 25.2363Z" fill="#E6E6E6"/>
<path d="M123.491 59.7233C123.491 59.7233 121.101 67.8496 115.979 63.7865C110.857 59.7233 103.493 47.2493 103.493 47.2493L107.442 44.1308L115.979 54.08L118.369 52.7525L123.491 59.7233Z" fill="#FFB6B6"/>
<path d="M127.248 31.1065L135.102 36.2428L123.491 63.3921L115.979 52.3857L127.248 31.1065Z" fill="#6C63FF"/>
<path d="M106.503 47.4046C108.136 46.3915 108.275 43.3653 106.814 40.6454C105.352 37.9255 102.843 36.5419 101.21 37.555C99.5765 38.5681 99.4373 41.5943 100.899 44.3142C102.361 47.0341 104.869 48.4178 106.503 47.4046Z" fill="#FFB6B6"/>
<path d="M131.5 42.5708C133.866 34.2363 136.406 31.5988 139.075 33.2501C141.108 34.5071 141.719 37.3681 140.528 39.5382C137.493 45.0698 131.238 57.7437 132.541 66.1438C132.541 66.1438 134.59 77.884 118.198 77.884C101.807 77.884 86.0991 73.8483 86.0991 73.8483L94.6362 72.3808L114.05 73.8707C118.486 74.2111 122.225 70.1334 121.632 65.3983C121.612 65.242 121.589 65.0839 121.562 64.9242C120.589 59.173 131.5 42.5708 131.5 42.5708Z" fill="#3F3D56"/>
<path d="M127.036 8.47249C126.283 10.7383 127.938 13.091 130.172 12.931L130.226 12.9271C131.728 14.9443 131.769 17.7978 130.326 19.8644C130.208 22.528 130.596 25.1896 131.468 27.6865L133.916 34.7018L137.686 32.8118L139.475 37.9418L150 32.1165L143.621 16.6965L141.675 8.33071C140.29 2.37885 134.639 -1.20367 129.12 0.37133L124.886 1.5797C121.54 2.53435 119.615 6.29716 120.657 9.84314L127.036 8.47249Z" fill="#2F2E41"/>
</g>
<defs>
<clipPath id="clip0_7118_8053">
<rect width="150" height="108" fill="white"/>
</clipPath>
</defs>
</svg>
