<svg width="75" height="75" viewBox="0 0 75 75" fill="none" xmlns="http://www.w3.org/2000/svg">
<rect x="0.5" y="0.5" width="74" height="74" rx="4.5" fill="#C3C4C7" stroke="#C3C4C7"/>
<path fill-rule="evenodd" clip-rule="evenodd" d="M26.716 27.9393C26.716 25.0378 27.8719 22.2551 29.9296 20.2034C31.9872 18.1517 34.778 16.999 37.6879 16.999C40.5979 16.999 43.3887 18.1517 45.4463 20.2034C47.504 22.2551 48.6599 25.0378 48.6599 27.9393C48.6599 30.8409 47.504 33.6236 45.4463 35.6753C43.3887 37.727 40.5979 38.8797 37.6879 38.8797C34.778 38.8797 31.9872 37.727 29.9296 35.6753C27.8719 33.6236 26.716 30.8409 26.716 27.9393ZM26.716 44.3498C23.0785 44.3498 19.5901 45.7906 17.018 48.3552C14.4459 50.9199 13.001 54.3983 13.001 58.0252C13.001 60.2014 13.868 62.2884 15.4112 63.8272C16.9544 65.366 19.0475 66.2304 21.23 66.2304H54.1459C56.3284 66.2304 58.4215 65.366 59.9647 63.8272C61.5079 62.2884 62.3749 60.2014 62.3749 58.0252C62.3749 54.3983 60.93 50.9199 58.3579 48.3552C55.7858 45.7906 52.2974 44.3498 48.6599 44.3498H26.716Z" fill="white"/>
</svg>
