<svg width="16" height="16" viewBox="0 0 16 16" fill="none" xmlns="http://www.w3.org/2000/svg">
<path fill-rule="evenodd" clip-rule="evenodd" d="M0.292893 0.292894C0.683418 -0.0976302 1.31658 -0.0976302 1.70711 0.292894L15.7071 14.2929C16.0976 14.6834 16.0976 15.3166 15.7071 15.7071C15.3166 16.0976 14.6834 16.0976 14.2929 15.7071L0.292893 1.70711C-0.097631 1.31658 -0.097631 0.683418 0.292893 0.292894Z" fill="black"/>
<path fill-rule="evenodd" clip-rule="evenodd" d="M0.292893 15.7071C-0.0976311 15.3166 -0.0976311 14.6834 0.292893 14.2929L14.2929 0.292894C14.6834 -0.0976312 15.3166 -0.0976312 15.7071 0.292894C16.0976 0.683417 16.0976 1.31658 15.7071 1.70711L1.70711 15.7071C1.31658 16.0976 0.683418 16.0976 0.292893 15.7071Z" fill="black"/>
</svg>
