<svg width="17" height="17" viewBox="0 0 17 17" fill="none" xmlns="http://www.w3.org/2000/svg">
<path fill-rule="evenodd" clip-rule="evenodd" d="M8.56061 3.15513C9.28188 2.15386 10.6783 1.92686 11.6796 2.64813L12.7952 3.45181C13.7965 4.17308 14.0235 5.56948 13.3022 6.57075L9.14222 12.3457C8.67064 13.0004 8.00105 13.5147 7.19694 13.7423C6.75525 13.8673 6.22585 14.0002 5.75548 14.0703C5.52138 14.1051 5.28453 14.1271 5.07192 14.1198C4.88085 14.1132 4.61496 14.0815 4.40155 13.9278C4.18815 13.7741 4.07389 13.5319 4.00712 13.3528C3.93284 13.1534 3.87868 12.9218 3.83759 12.6887C3.75503 12.2204 3.71346 11.6761 3.69211 11.2176C3.65324 10.3828 3.92902 9.58478 4.4006 8.93012L8.56061 3.15513ZM11.0768 3.48489C10.5376 3.09651 9.78574 3.21874 9.39737 3.75789L8.39277 5.15248L11.4609 7.36259L12.4655 5.968C12.8538 5.42885 12.7316 4.67694 12.1925 4.28856L11.0768 3.48489ZM5.23736 9.53288L7.79001 5.98924L10.8581 8.19934L8.30546 11.743C7.95259 12.2329 7.46932 12.5935 6.91616 12.75C6.4896 12.8707 6.00939 12.9898 5.60362 13.0503C5.39965 13.0806 5.2318 13.0934 5.10742 13.0891C5.06329 13.0876 5.03219 13.0842 5.01157 13.081C5.00201 13.0624 4.98887 13.034 4.97345 12.9926C4.92999 12.876 4.88898 12.7128 4.85318 12.5097C4.78196 12.1057 4.74286 11.6124 4.72224 11.1696C4.6955 10.5954 4.88448 10.0227 5.23736 9.53288Z" fill="white"/>
<path d="M9.86643 13.3013C9.58165 13.3013 9.3508 13.5322 9.3508 13.817C9.3508 14.1017 9.58165 14.3326 9.86643 14.3326H13.6477C13.9324 14.3326 14.1633 14.1017 14.1633 13.817C14.1633 13.5322 13.9324 13.3013 13.6477 13.3013H9.86643Z" fill="white"/>
</svg>
