<svg width="70" height="30" viewBox="0 0 70 30" fill="none" xmlns="http://www.w3.org/2000/svg">
<rect width="70" height="30" rx="10" fill="#FFF6D4"/>
<path d="M20.8867 15.8555V17.1055C21.5801 17.0664 22.2783 16.998 22.9375 16.9004L23.0449 17.9258C21.082 18.3066 18.9824 18.3262 17.4297 18.3262L17.2734 17.2031C17.9229 17.2031 18.6846 17.1982 19.4902 17.1738V15.8555H20.8867ZM22.6641 11.998V13.1211H20.9258C21.0186 13.9023 21.6094 14.6689 22.957 14.9863L22.3223 16.0605C21.2871 15.8115 20.5938 15.2646 20.1934 14.5664C19.8027 15.2988 19.1191 15.875 18.0742 16.1289L17.4199 15.0742C18.7676 14.7275 19.3535 13.9414 19.4512 13.1211H17.7227V11.998H19.4902V11.0605H20.8867V11.998H22.6641ZM24.8125 10.9727V19.957H23.416V10.9727H24.8125ZM32.9863 10.9727V14.2344H34.2559V15.377H32.9863V19.957H31.5801V10.9727H32.9863ZM30.4277 11.793V12.9258H27.625V16.6465C28.8311 16.6367 29.8711 16.5635 31.0039 16.373L31.1504 17.5449C29.7734 17.7793 28.5332 17.8086 26.9902 17.8086H26.2188V11.793H30.4277ZM42.6934 16.3242V17.4668H39.2949V19.9473H37.8887V17.4668H34.5195V16.3242H42.6934ZM41.9609 11.9785V13.082H39.3438C39.5195 13.7754 40.3936 14.6152 42.2832 14.8203L41.7754 15.9141C40.2422 15.7529 39.1826 15.1572 38.6016 14.3906C38.0205 15.167 36.9561 15.748 35.4082 15.9141L34.9004 14.8203C36.8047 14.6104 37.6787 13.7852 37.8594 13.082H35.2422V11.9785H37.8887V10.9922H39.2949V11.9785H41.9609ZM48.2793 11.9785V13.082H46.541C46.5459 14.0244 47.1025 15.0449 48.6016 15.5039L47.9277 16.5879C46.9414 16.3096 46.2627 15.7236 45.8672 14.9863C45.4668 15.7871 44.7783 16.417 43.748 16.7246L43.0742 15.6309C44.5635 15.1914 45.1299 14.1123 45.1348 13.082H43.4062V11.9785H45.1348V11.0312H46.5508V11.9785H48.2793ZM50.75 10.9824V17.6133H49.3535V14.6738H47.9863V13.5508H49.3535V10.9824H50.75ZM50.9551 18.668V19.791H44.7441V17.0566H46.1504V18.668H50.9551Z" fill="#FFBD3C"/>
</svg>
