<svg width="97" height="74" viewBox="0 0 97 74" fill="none" xmlns="http://www.w3.org/2000/svg">
<path d="M97 27C97 47.4345 77.0572 74 49.6412 74C22.2251 74 0 57.4345 0 37C0 16.5654 22.2251 -7.62939e-06 49.6412 -7.62939e-06C77.0572 -7.62939e-06 97 6.56542 97 27Z" fill="#0E2764"/>
<path d="M37.8633 28.7461V29.957C37.8633 31.0996 37.8633 32.5254 37.5312 34.3125H39.7969V36.2656H23.5273V34.3125H35.0117C35.3047 32.8672 35.3633 31.7051 35.3828 30.7188H25.5195V28.7461H37.8633ZM37.7852 37.5156V42.4961H27.8633V43.7461H38.2734V45.6602H25.3828V40.6211H35.3242V39.4492H25.3633V37.5156H37.7852ZM46.6133 31.3438C46.6133 33.0527 47.248 34.9668 48.918 36.168C50.5781 34.9766 51.2227 33.0625 51.2227 31.3438V29.293H53.7422V31.3438C53.7227 33.4922 54.6602 35.6797 57.1211 36.6758L55.793 38.5312C54.1426 37.8281 53.0781 36.5684 52.4727 35.0156C51.8379 36.6562 50.7148 38.043 48.918 38.7852C47.1016 38.0527 45.9688 36.6465 45.3438 34.9961C44.7188 36.5391 43.6445 37.8184 42.0234 38.5312L40.7344 36.6758C43.1172 35.6406 44.1133 33.4141 44.1133 31.3438V29.293H46.6133V31.3438ZM57.0234 41.5781V43.5898H40.8125V41.5781H57.0234ZM73.0391 28.0234V45.7969H70.5195V28.0234H73.0391ZM67.707 29.8789C67.707 35.2695 65.8125 39.7422 59.4648 42.75L58.1562 40.7578C62.7461 38.5898 64.7676 35.7773 65.168 31.832H59.1133V29.8789H67.707Z" fill="white"/>
</svg>
