<svg width="40" height="40" viewBox="0 0 40 40" fill="none" xmlns="http://www.w3.org/2000/svg">
<path d="M12.5 18.7524C12.5 19.4629 12.2366 20.1443 11.7678 20.6467C11.2989 21.1491 10.663 21.4314 10 21.4314C9.33696 21.4314 8.70107 21.1491 8.23223 20.6467C7.76339 20.1443 7.5 19.4629 7.5 18.7524C7.5 18.0419 7.76339 17.3605 8.23223 16.8581C8.70107 16.3557 9.33696 16.0735 10 16.0735C10.663 16.0735 11.2989 16.3557 11.7678 16.8581C12.2366 17.3605 12.5 18.0419 12.5 18.7524ZM22.5 18.7524C22.5 19.4629 22.2366 20.1443 21.7678 20.6467C21.2989 21.1491 20.663 21.4314 20 21.4314C19.337 21.4314 18.7011 21.1491 18.2322 20.6467C17.7634 20.1443 17.5 19.4629 17.5 18.7524C17.5 18.0419 17.7634 17.3605 18.2322 16.8581C18.7011 16.3557 19.337 16.0735 20 16.0735C20.663 16.0735 21.2989 16.3557 21.7678 16.8581C22.2366 17.3605 22.5 18.0419 22.5 18.7524ZM30 21.4314C30.663 21.4314 31.2989 21.1491 31.7678 20.6467C32.2366 20.1443 32.5 19.4629 32.5 18.7524C32.5 18.0419 32.2366 17.3605 31.7678 16.8581C31.2989 16.3557 30.663 16.0735 30 16.0735C29.337 16.0735 28.7011 16.3557 28.2322 16.8581C27.7634 17.3605 27.5 18.0419 27.5 18.7524C27.5 19.4629 27.7634 20.1443 28.2322 20.6467C28.7011 21.1491 29.337 21.4314 30 21.4314Z" fill="#0E2764"/>
<path d="M5.4125 39.6563L5.4625 39.6456C10.0375 38.6732 12.8325 37.39 14.1325 36.6854C16.0461 37.2342 18.019 37.5099 20 37.5051C31.045 37.5051 40 29.1094 40 18.7526C40 8.3958 31.045 0 20 0C8.955 0 0 8.3958 0 18.7526C0 23.4675 1.8575 27.7806 4.925 31.0757C4.71119 33.1925 4.27166 35.276 3.615 37.2855L3.6075 37.3149C3.42068 37.8904 3.21725 38.4595 2.9975 39.0214C2.8 39.5197 3.1825 40.0769 3.68 39.9912C4.25913 39.8895 4.8367 39.7779 5.4125 39.6563ZM7.4125 31.3302C7.44752 30.938 7.40137 30.5423 7.27735 30.1714C7.15333 29.8005 6.95449 29.4635 6.695 29.1844C4.045 26.334 2.5 22.6853 2.5 18.7526C2.5 10.2014 10.01 2.67894 20 2.67894C29.99 2.67894 37.5 10.2014 37.5 18.7526C37.5 27.3037 29.99 34.8262 20 34.8262C18.2376 34.8308 16.4824 34.5858 14.78 34.0975C14.1849 33.9267 13.552 33.9973 13.0025 34.2958C12.035 34.8209 9.9025 35.8228 6.4175 36.6881C6.90327 34.939 7.23637 33.1453 7.4125 31.3302Z" fill="#0E2764"/>
</svg>
