<svg width="15" height="14" viewBox="0 0 15 14" fill="none" xmlns="http://www.w3.org/2000/svg">
<path d="M2.02676 13.8089L2.04551 13.8052C3.76113 13.4665 4.80926 13.0197 5.29676 12.7744C6.01437 12.9655 6.7542 13.0615 7.49707 13.0598C11.6389 13.0598 14.9971 10.1363 14.9971 6.52991C14.9971 2.92354 11.6389 0 7.49707 0C3.3552 0 -0.00292969 2.92354 -0.00292969 6.52991C-0.00292969 8.17172 0.693633 9.6736 1.84395 10.821C1.76377 11.5581 1.59894 12.2836 1.3527 12.9833L1.34988 12.9936C1.27982 13.194 1.20354 13.3921 1.12113 13.5878C1.04707 13.7613 1.19051 13.9554 1.37707 13.9255C1.59424 13.8901 1.81083 13.8512 2.02676 13.8089ZM2.77676 10.9096C2.78989 10.773 2.77259 10.6353 2.72608 10.5061C2.67957 10.377 2.60501 10.2596 2.5077 10.1624C1.51395 9.16987 0.93457 7.89933 0.93457 6.52991C0.93457 3.55227 3.75082 0.932845 7.49707 0.932845C11.2433 0.932845 14.0596 3.55227 14.0596 6.52991C14.0596 9.50756 11.2433 12.127 7.49707 12.127C6.83618 12.1286 6.17799 12.0433 5.53957 11.8733C5.31642 11.8138 5.07906 11.8383 4.87301 11.9423C4.5102 12.1251 3.71051 12.474 2.40363 12.7753C2.5858 12.1663 2.71071 11.5417 2.77676 10.9096Z" fill="#787878"/>
</svg>
