<svg width="25" height="25" viewBox="0 0 25 25" fill="none" xmlns="http://www.w3.org/2000/svg">
<circle cx="12.5" cy="12.5" r="12" fill="#E6EDF7" stroke="#C5D0DA"/>
<path d="M16.739 7.38289C16.9587 7.13459 17.2511 6.99732 17.5545 7.00004C17.8579 7.00276 18.1485 7.14527 18.365 7.39749C18.5816 7.64971 18.7071 7.99191 18.7151 8.35189C18.7231 8.71187 18.613 9.06147 18.408 9.32692L12.1843 18.5657C12.0773 18.7025 11.9481 18.8123 11.8045 18.8885C11.6609 18.9648 11.5059 19.0058 11.3486 19.0093C11.1913 19.0127 11.0351 18.9785 10.8892 18.9087C10.7434 18.8388 10.6109 18.7348 10.4997 18.6027L6.37234 13.7038C6.25741 13.5766 6.16522 13.4233 6.10128 13.253C6.03734 13.0827 6.00295 12.8988 6.00018 12.7124C5.99741 12.5259 6.02631 12.3407 6.08514 12.1678C6.14398 11.9949 6.23156 11.8378 6.34265 11.706C6.45374 11.5741 6.58606 11.4702 6.73173 11.4003C6.8774 11.3305 7.03343 11.2962 7.19051 11.2995C7.34759 11.3028 7.5025 11.3436 7.64601 11.4195C7.78951 11.4954 7.91867 11.6048 8.02577 11.7412L11.2921 15.6163L16.7094 7.42362L16.739 7.38289Z" fill="#0E2764"/>
</svg>
