<svg width="45" height="40" viewBox="0 0 45 40" fill="none" xmlns="http://www.w3.org/2000/svg">
<path d="M7.94118 9.62963C7.94118 7.86152 8.56867 6.16583 9.68561 4.91558C10.8026 3.66534 12.3175 2.96296 13.8971 2.96296C15.4767 2.96296 16.9916 3.66534 18.1085 4.91558C19.2254 6.16583 19.8529 7.86152 19.8529 9.62963C19.8529 11.3977 19.2254 13.0934 18.1085 14.3437C16.9916 15.5939 15.4767 16.2963 13.8971 16.2963C12.3175 16.2963 10.8026 15.5939 9.68561 14.3437C8.56867 13.0934 7.94118 11.3977 7.94118 9.62963ZM13.8971 0C11.6154 0 9.42722 1.01455 7.81386 2.82045C6.2005 4.62636 5.29412 7.07569 5.29412 9.62963C5.29412 12.1836 6.2005 14.6329 7.81386 16.4388C9.42722 18.2447 11.6154 19.2593 13.8971 19.2593C16.1787 19.2593 18.3669 18.2447 19.9803 16.4388C21.5936 14.6329 22.5 12.1836 22.5 9.62963C22.5 7.07569 21.5936 4.62636 19.9803 2.82045C18.3669 1.01455 16.1787 0 13.8971 0ZM28.9509 34.5037C30.375 35.1556 32.1671 35.5556 34.4118 35.5556C39.3909 35.5556 42.1438 33.5763 43.5944 31.3067C44.3512 30.1156 44.8257 28.7292 44.9735 27.277C44.9868 27.1421 44.9956 27.0067 45 26.8711V26.6667C45 26.083 44.8973 25.5051 44.6978 24.9659C44.4982 24.4266 44.2057 23.9367 43.837 23.524C43.4683 23.1113 43.0306 22.7839 42.5489 22.5605C42.0672 22.3372 41.5508 22.2222 41.0294 22.2222H28.7735C29.4088 23.0815 29.8853 24.0859 30.1632 25.1852H41.0294C41.3804 25.1852 41.7171 25.3413 41.9653 25.6191C42.2135 25.8969 42.3529 26.2738 42.3529 26.6667V26.8267L42.3397 26.9748C42.2383 27.9143 41.929 28.8105 41.4397 29.5822C40.5741 30.9422 38.6947 32.5926 34.4118 32.5926C32.4741 32.5926 31.0288 32.2548 29.9462 31.76C29.7291 32.5896 29.4141 33.5259 28.9509 34.5037ZM0 28.1481C0 26.5765 0.557771 25.0692 1.55061 23.9579C2.54345 22.8466 3.89003 22.2222 5.29412 22.2222H22.5C23.9041 22.2222 25.2507 22.8466 26.2435 23.9579C27.2363 25.0692 27.7941 26.5765 27.7941 28.1481V28.397C27.7941 28.4267 27.7941 28.4652 27.7888 28.5156C27.7566 29.1022 27.6814 29.6849 27.5638 30.2578C27.3388 31.3481 26.8915 32.8059 25.9888 34.2696C24.1332 37.2741 20.5491 40 13.8971 40C7.245 40 3.66088 37.2741 1.80529 34.2696C0.828064 32.6763 0.218734 30.8368 0.0317646 28.9156C0.015947 28.7432 0.00535281 28.5702 0 28.397V28.3319V28.1481ZM2.64706 28.3259V28.3793L2.66559 28.6252C2.80902 30.0455 3.26167 31.4048 3.98382 32.5837C5.27294 34.6696 7.97559 37.037 13.8971 37.037C19.8185 37.037 22.5212 34.6696 23.8103 32.5837C24.5326 31.4049 24.9853 30.0456 25.1285 28.6252C25.1372 28.5435 25.1425 28.4615 25.1444 28.3793L25.1471 28.3289V28.1481C25.1471 27.3623 24.8682 26.6087 24.3718 26.053C23.8753 25.4974 23.202 25.1852 22.5 25.1852H5.29412C4.59207 25.1852 3.91878 25.4974 3.42236 26.053C2.92594 26.6087 2.64706 27.3623 2.64706 28.1481V28.3259ZM30.4412 11.8519C30.4412 10.6731 30.8595 9.54265 31.6041 8.70915C32.3488 7.87566 33.3587 7.40741 34.4118 7.40741C35.4648 7.40741 36.4748 7.87566 37.2194 8.70915C37.964 9.54265 38.3824 10.6731 38.3824 11.8519C38.3824 13.0306 37.964 14.1611 37.2194 14.9945C36.4748 15.828 35.4648 16.2963 34.4118 16.2963C33.3587 16.2963 32.3488 15.828 31.6041 14.9945C30.8595 14.1611 30.4412 13.0306 30.4412 11.8519ZM34.4118 4.44444C32.6567 4.44444 30.9734 5.22487 29.7324 6.61402C28.4913 8.00318 27.7941 9.88728 27.7941 11.8519C27.7941 13.8164 28.4913 15.7005 29.7324 17.0897C30.9734 18.4788 32.6567 19.2593 34.4118 19.2593C36.1669 19.2593 37.8501 18.4788 39.0911 17.0897C40.3322 15.7005 41.0294 13.8164 41.0294 11.8519C41.0294 9.88728 40.3322 8.00318 39.0911 6.61402C37.8501 5.22487 36.1669 4.44444 34.4118 4.44444Z" fill="white"/>
</svg>
