<svg width="60" height="60" viewBox="0 0 60 60" fill="none" xmlns="http://www.w3.org/2000/svg">
<circle cx="30" cy="30" r="30" fill="#0E2764"/>
<path d="M18.8008 21.5508C21.4375 21.5508 23.3711 23.0742 23.3906 25.3008C23.3711 26.9805 22.1895 28.3184 20.4023 28.8164V29.8711C21.6328 29.793 22.8633 29.6758 24.0156 29.5195L24.25 31.7656C20.6172 32.4102 16.5938 32.5078 13.6445 32.5078L13.332 30.0664C14.4941 30.0664 15.832 30.0566 17.2383 30.0078V28.8359C15.4219 28.3477 14.2109 27 14.2109 25.3008C14.2109 23.0742 16.1445 21.5508 18.8008 21.5508ZM18.8008 23.8945C17.8242 23.9141 17.1016 24.3242 17.1211 25.3008C17.1016 26.1992 17.8242 26.668 18.8008 26.668C19.7969 26.668 20.4414 26.1992 20.4414 25.3008C20.4414 24.3242 19.7969 23.9141 18.8008 23.8945ZM28.0586 20.9062V26.2969H30.1289V28.8945H28.0586V34.6562H24.9336V20.9062H28.0586ZM28.6641 36.1797V38.6602H15.5586V33.4258H18.7227V36.1797H28.6641ZM47.1992 34.5391V37.0781H30.6953V34.5391H34.6602V32.1953H32.4922V25.8086H42.3164V24.4414H32.4727V21.9414H45.4219V28.2695H35.6367V29.6758H45.832V32.1953H43.4688V34.5391H47.1992ZM37.707 34.5391H40.3828V32.1953H37.707V34.5391Z" fill="white"/>
</svg>
