<svg width="97" height="74" viewBox="0 0 97 74" fill="none" xmlns="http://www.w3.org/2000/svg">
<path d="M97 27C97 47.4345 77.0572 74 49.6412 74C22.2251 74 0 57.4345 0 37C0 16.5654 22.2251 -7.62939e-06 49.6412 -7.62939e-06C77.0572 -7.62939e-06 97 6.56542 97 27Z" fill="#0E2764"/>
<path d="M39.75 34.5C41.1307 34.5 42.25 35.6193 42.25 37C42.25 38.3807 41.1307 39.5 39.75 39.5C38.3693 39.5 37.25 38.3807 37.25 37C37.25 35.6193 38.3693 34.5 39.75 34.5Z" fill="white"/>
<path d="M49.75 34.5C51.1307 34.5 52.25 35.6193 52.25 37C52.25 38.3807 51.1307 39.5 49.75 39.5C48.3693 39.5 47.25 38.3807 47.25 37C47.25 35.6193 48.3693 34.5 49.75 34.5Z" fill="white"/>
<path d="M59.75 34.5C61.1307 34.5 62.25 35.6193 62.25 37C62.25 38.3807 61.1307 39.5 59.75 39.5C58.3693 39.5 57.25 38.3807 57.25 37C57.25 35.6193 58.3693 34.5 59.75 34.5Z" fill="white"/>
</svg>
