<svg width="97" height="74" viewBox="0 0 97 74" fill="none" xmlns="http://www.w3.org/2000/svg">
<path d="M97 27C97 47.4345 77.0572 74 49.6412 74C22.2251 74 0 57.4345 0 37C0 16.5654 22.2251 -7.62939e-06 49.6412 -7.62939e-06C77.0572 -7.62939e-06 97 6.56542 97 27Z" fill="#0E2764"/>
<path fill-rule="evenodd" clip-rule="evenodd" d="M40.2929 29.2929C40.6834 28.9024 41.3166 28.9024 41.7071 29.2929L55.7071 43.2929C56.0976 43.6834 56.0976 44.3166 55.7071 44.7071C55.3166 45.0976 54.6834 45.0976 54.2929 44.7071L40.2929 30.7071C39.9024 30.3166 39.9024 29.6834 40.2929 29.2929Z" fill="white"/>
<path fill-rule="evenodd" clip-rule="evenodd" d="M40.2929 44.7071C39.9024 44.3166 39.9024 43.6834 40.2929 43.2929L54.2929 29.2929C54.6834 28.9024 55.3166 28.9024 55.7071 29.2929C56.0976 29.6834 56.0976 30.3166 55.7071 30.7071L41.7071 44.7071C41.3166 45.0976 40.6834 45.0976 40.2929 44.7071Z" fill="white"/>
</svg>
