<svg width="60" height="60" viewBox="0 0 60 60" fill="none" xmlns="http://www.w3.org/2000/svg">
<circle cx="30" cy="30" r="30" fill="#0E2764"/>
<mask id="mask0_2957_427" style="mask-type:alpha" maskUnits="userSpaceOnUse" x="15" y="15" width="30" height="30">
<rect x="15" y="15" width="30" height="30" fill="#D9D9D9"/>
</mask>
<g mask="url(#mask0_2957_427)">
<path d="M37.5 34.6875C37.5 36.8542 36.7396 38.6979 35.2188 40.2188C33.6979 41.7396 31.8542 42.5 29.6875 42.5C27.5208 42.5 25.6771 41.7396 24.1562 40.2188C22.6354 38.6979 21.875 36.8542 21.875 34.6875V23.125C21.875 21.5625 22.4219 20.2344 23.5156 19.1406C24.6094 18.0469 25.9375 17.5 27.5 17.5C29.0625 17.5 30.3906 18.0469 31.4844 19.1406C32.5781 20.2344 33.125 21.5625 33.125 23.125V34.0625C33.125 35.0208 32.7917 35.8333 32.125 36.5C31.4583 37.1667 30.6458 37.5 29.6875 37.5C28.7292 37.5 27.9167 37.1667 27.25 36.5C26.5833 35.8333 26.25 35.0208 26.25 34.0625V22.5H28.75V34.0625C28.75 34.3333 28.8385 34.5573 29.0156 34.7344C29.1927 34.9115 29.4167 35 29.6875 35C29.9583 35 30.1823 34.9115 30.3594 34.7344C30.5365 34.5573 30.625 34.3333 30.625 34.0625V23.125C30.6042 22.25 30.2969 21.5104 29.7031 20.9063C29.1094 20.3021 28.375 20 27.5 20C26.625 20 25.8854 20.3021 25.2813 20.9063C24.6771 21.5104 24.375 22.25 24.375 23.125V34.6875C24.3542 36.1667 24.8646 37.4219 25.9062 38.4531C26.9479 39.4844 28.2083 40 29.6875 40C31.1458 40 32.3854 39.4844 33.4062 38.4531C34.4271 37.4219 34.9583 36.1667 35 34.6875V22.5H37.5V34.6875Z" fill="white"/>
</g>
</svg>
