<svg width="60" height="60" viewBox="0 0 60 60" fill="none" xmlns="http://www.w3.org/2000/svg">
<circle cx="30" cy="30" r="30" fill="#0E2764"/>
<mask id="mask0_2957_428" style="mask-type:alpha" maskUnits="userSpaceOnUse" x="15" y="15" width="30" height="30">
<rect x="15" y="15" width="30" height="30" fill="#D9D9D9"/>
</mask>
<g mask="url(#mask0_2957_428)">
<path d="M21.25 41.25C20.5625 41.25 19.974 41.0052 19.4844 40.5156C18.9948 40.026 18.75 39.4375 18.75 38.75V21.25C18.75 20.5625 18.9948 19.974 19.4844 19.4844C19.974 18.9948 20.5625 18.75 21.25 18.75H38.75C39.4375 18.75 40.026 18.9948 40.5156 19.4844C41.0052 19.974 41.25 20.5625 41.25 21.25V38.75C41.25 39.4375 41.0052 40.026 40.5156 40.5156C40.026 41.0052 39.4375 41.25 38.75 41.25H21.25ZM21.25 38.75H38.75V21.25H21.25V38.75ZM22.5 36.25H37.5L32.8125 30L29.0625 35L26.25 31.25L22.5 36.25Z" fill="white"/>
</g>
</svg>
