<svg width="40" height="40" viewBox="0 0 40 40" fill="none" xmlns="http://www.w3.org/2000/svg">
<path d="M22.5 10.75C22.5 12.1307 21.3807 13.25 20 13.25C18.6193 13.25 17.5 12.1307 17.5 10.75C17.5 9.36929 18.6193 8.25 20 8.25C21.3807 8.25 22.5 9.36929 22.5 10.75Z" fill="#1C1B1F"/>
<path d="M22.5 20.75C22.5 22.1307 21.3807 23.25 20 23.25C18.6193 23.25 17.5 22.1307 17.5 20.75C17.5 19.3693 18.6193 18.25 20 18.25C21.3807 18.25 22.5 19.3693 22.5 20.75Z" fill="#1C1B1F"/>
<path d="M22.5 30.75C22.5 32.1307 21.3807 33.25 20 33.25C18.6193 33.25 17.5 32.1307 17.5 30.75C17.5 29.3693 18.6193 28.25 20 28.25C21.3807 28.25 22.5 29.3693 22.5 30.75Z" fill="#1C1B1F"/>
</svg>
