<svg width="140" height="102" viewBox="0 0 140 102" fill="none" xmlns="http://www.w3.org/2000/svg">
<rect width="140" height="102" rx="12" fill="#0E2764"/>
<path fill-rule="evenodd" clip-rule="evenodd" d="M56.8899 37.1111C56.8899 34.1643 58.0606 31.3381 60.1443 29.2544C62.228 27.1706 65.0542 26 68.001 26C70.9479 26 73.7741 27.1706 75.8578 29.2544C77.9415 31.3381 79.1122 34.1643 79.1122 37.1111C79.1122 40.058 77.9415 42.8841 75.8578 44.9679C73.7741 47.0516 70.9479 48.2222 68.001 48.2222C65.0542 48.2222 62.228 47.0516 60.1443 44.9679C58.0606 42.8841 56.8899 40.058 56.8899 37.1111ZM56.8899 53.7778C53.2064 53.7778 49.6737 55.2411 47.069 57.8457C44.4643 60.4504 43.001 63.9831 43.001 67.6667C43.001 69.8768 43.879 71.9964 45.4418 73.5592C47.0046 75.122 49.1242 76 51.3344 76H84.6677C86.8778 76 88.9975 75.122 90.5603 73.5592C92.1231 71.9964 93.001 69.8768 93.001 67.6667C93.001 63.9831 91.5378 60.4504 88.9331 57.8457C86.3284 55.2411 82.7957 53.7778 79.1122 53.7778H56.8899Z" fill="white"/>
</svg>
