<svg width="14" height="21" viewBox="0 0 14 21" fill="none" xmlns="http://www.w3.org/2000/svg">
<rect width="14" height="21" fill="#918A8A"/>
<g id="professor-veiw">
<path d="M-8014 -702C-8014 -757.229 -7969.23 -802 -7914 -802H13550C13605.2 -802 13650 -757.228 13650 -702V8747C13650 8802.23 13605.2 8847 13550 8847H-7914C-7969.23 8847 -8014 8802.23 -8014 8747V-702Z" fill="#404040"/>
<path d="M-7914 -801H13550V-803H-7914V-801ZM13649 -702V8747H13651V-702H13649ZM13550 8846H-7914V8848H13550V8846ZM-8013 8747V-702H-8015V8747H-8013ZM-7914 8846C-7968.68 8846 -8013 8801.68 -8013 8747H-8015C-8015 8802.78 -7969.78 8848 -7914 8848V8846ZM13649 8747C13649 8801.68 13604.7 8846 13550 8846V8848C13605.8 8848 13651 8802.78 13651 8747H13649ZM13550 -801C13604.7 -801 13649 -756.676 13649 -702H13651C13651 -757.781 13605.8 -803 13550 -803V-801ZM-7914 -803C-7969.78 -803 -8015 -757.781 -8015 -702H-8013C-8013 -756.676 -7968.68 -801 -7914 -801V-803Z" fill="white" fill-opacity="0.1"/>
<g id="community" clip-path="url(#clip0_0_1)">
<rect width="1920" height="1080" transform="translate(-1772 -188)" fill="#F4F5F9"/>
<g id="Frame 340">
<g id="Frame 340_2">
<g id="Frame 535">
<g id="Frame 402">
<rect x="-524" y="-32.5" width="568" height="439" rx="20" fill="white"/>
<g id="Frame 531">
<path id="Vector" d="M13.9746 10.594C13.9767 10.725 13.9439 10.8549 13.8783 10.9753C13.8128 11.0958 13.716 11.2041 13.5942 11.2933L2.18116 20.2843C1.67391 20.6839 0.887681 20.6839 0.380435 20.2843C-0.126812 19.8847 -0.126812 19.2653 0.380435 18.8657L10.9058 10.574L0.405797 2.30227C-0.101449 1.90266 -0.101449 1.28329 0.405797 0.883684C0.913043 0.484083 1.69928 0.484083 2.20652 0.883684L13.6196 9.87469C13.8732 10.0745 14 10.3342 14 10.574L13.9746 10.594Z" fill="#AAAAAA"/>
</g>
</g>
</g>
</g>
</g>
</g>
</g>
<defs>
<clipPath id="clip0_0_1">
<rect width="1920" height="1080" fill="white" transform="translate(-1772 -188)"/>
</clipPath>
</defs>
</svg>
