<svg width="36" height="36" viewBox="0 0 36 36" fill="none" xmlns="http://www.w3.org/2000/svg">
<path d="M33.1307 35.2535L20.8077 23.176C19.8297 23.9429 18.705 24.5499 17.4336 24.9972C16.1622 25.4446 14.8092 25.6682 13.3748 25.6682C9.82137 25.6682 6.81398 24.4621 4.35264 22.0498C1.89131 19.6375 0.660645 16.69 0.660645 13.2073C0.660645 9.72468 1.89131 6.7772 4.35264 4.36491C6.81398 1.95261 9.82137 0.74646 13.3748 0.74646C16.9283 0.74646 19.9357 1.95261 22.397 4.36491C24.8583 6.7772 26.089 9.72468 26.089 13.2073C26.089 14.6132 25.8608 15.9391 25.4044 17.1852C24.948 18.4313 24.3286 19.5336 23.5462 20.4922L35.8691 32.5696L33.1307 35.2535ZM13.3748 21.8341C15.8198 21.8341 17.8981 20.9954 19.6096 19.318C21.3212 17.6405 22.1769 15.6037 22.1769 13.2073C22.1769 10.811 21.3212 8.77414 19.6096 7.09671C17.8981 5.41929 15.8198 4.58058 13.3748 4.58058C10.9298 4.58058 8.8515 5.41929 7.13998 7.09671C5.42846 8.77414 4.5727 10.811 4.5727 13.2073C4.5727 15.6037 5.42846 17.6405 7.13998 19.318C8.8515 20.9954 10.9298 21.8341 13.3748 21.8341Z" fill="#D1D1D1"/>
</svg>
