<svg width="36" height="36" viewBox="0 0 36 36" fill="none" xmlns="http://www.w3.org/2000/svg">
<path d="M32.6307 35.2536L20.3077 23.1762C19.3297 23.943 18.205 24.5501 16.9336 24.9974C15.6622 25.4447 14.3092 25.6683 12.8748 25.6683C9.32137 25.6683 6.31398 24.4622 3.85264 22.0499C1.39131 19.6376 0.160645 16.6901 0.160645 13.2075C0.160645 9.7248 1.39131 6.77733 3.85264 4.36503C6.31398 1.95273 9.32137 0.746582 12.8748 0.746582C16.4283 0.746582 19.4357 1.95273 21.897 4.36503C24.3583 6.77733 25.589 9.7248 25.589 13.2075C25.589 14.6133 25.3608 15.9393 24.9044 17.1854C24.448 18.4314 23.8286 19.5337 23.0462 20.4923L35.3691 32.5697L32.6307 35.2536ZM12.8748 21.8342C15.3198 21.8342 17.3981 20.9955 19.1096 19.3181C20.8212 17.6407 21.6769 15.6038 21.6769 13.2075C21.6769 10.8111 20.8212 8.77426 19.1096 7.09684C17.3981 5.41941 15.3198 4.5807 12.8748 4.5807C10.4298 4.5807 8.3515 5.41941 6.63998 7.09684C4.92846 8.77426 4.0727 10.8111 4.0727 13.2075C4.0727 15.6038 4.92846 17.6407 6.63998 19.3181C8.3515 20.9955 10.4298 21.8342 12.8748 21.8342Z" fill="#D1D1D1"/>
</svg>
