<svg width="10" height="11" viewBox="0 0 10 11" fill="none" xmlns="http://www.w3.org/2000/svg">
<mask id="path-1-inside-1_3229_1669" fill="white">
<path d="M1.66943 1.09985H9.16717V1.63267H1.66943V1.09985Z"/>
</mask>
<path d="M1.66943 1.09985H9.16717V1.63267H1.66943V1.09985Z" fill="#787878"/>
<path d="M1.66943 1.09985V0.0998535H0.669434V1.09985H1.66943ZM9.16717 1.09985H10.1672V0.0998535H9.16717V1.09985ZM9.16717 1.63267V2.63267H10.1672V1.63267H9.16717ZM1.66943 1.63267H0.669434V2.63267H1.66943V1.63267ZM1.66943 2.09985H9.16717V0.0998535H1.66943V2.09985ZM8.16717 1.09985V1.63267H10.1672V1.09985H8.16717ZM9.16717 0.632666H1.66943V2.63267H9.16717V0.632666ZM2.66943 1.63267V1.09985H0.669434V1.63267H2.66943Z" fill="#D1D1D1" mask="url(#path-1-inside-1_3229_1669)"/>
<path d="M9.878 10.8993C9.95611 10.8349 10 10.7474 10 10.6562V2.43031C10.0002 2.33679 9.95731 2.24671 9.87993 2.17838C9.80255 2.11005 9.69654 2.06862 9.58346 2.0625M9.878 10.8993L9.58346 0C9.69393 0 9.79988 0.0362164 9.878 0.100682C9.95611 0.165148 10 0.252582 10 0.34375C10 0.434918 9.95611 0.522352 9.878 0.586818C9.79988 0.651284 9.69393 0.6875 9.58346 0.6875H1.61087C1.40018 0.6997 1.20297 0.777485 1.05914 0.905118C0.915307 1.03275 0.835586 1.2007 0.836104 1.375M9.878 10.8993C9.79988 10.9638 9.69393 11 9.58346 11H1.61087M9.878 10.8993L9.5 10.5M9.58346 2.0625H1.61087C1.50457 2.06126 1.39968 2.04226 1.30251 2.00665C1.20535 1.97105 1.11794 1.91957 1.04554 1.85532C0.973138 1.79108 0.917256 1.7154 0.881262 1.63285C0.845267 1.5503 0.829906 1.46258 0.836104 1.375M9.58346 2.0625V2.42923V2.43031V2.51413V2.5625H9.56236C9.56278 2.5627 9.56302 2.56279 9.56306 2.5628C9.56309 2.56282 9.56309 2.56281 9.56305 2.5628C9.56294 2.56277 9.56255 2.56265 9.56192 2.5625H9.5M9.58346 2.0625L9.56362 2.42918L9.56356 2.43031L9.55743 2.54361L9.55659 2.55914C9.55447 2.5577 9.5519 2.55576 9.54898 2.55318C9.5312 2.53747 9.50024 2.49582 9.5 2.43031V2.5625M0.836104 1.375L0.503436 1.35146L1.61087 0.1875H1.5964L1.58196 0.188336C1.27071 0.20636 0.963473 0.321538 0.727278 0.53113C0.696538 0.558407 0.667213 0.587144 0.63945 0.617225C0.455528 0.816503 0.340151 1.07476 0.336206 1.35824C0.335915 1.36375 0.335668 1.36925 0.335466 1.37475C0.33517 1.38279 0.334968 1.39082 0.334859 1.39884C0.33431 1.4392 0.336124 1.47938 0.340231 1.51921C0.342173 1.53805 0.344627 1.55681 0.347587 1.57547C0.348588 1.58178 0.349647 1.58808 0.350763 1.59437C0.352636 1.60493 0.354672 1.61545 0.356868 1.62594C0.3717 1.69678 0.39386 1.76601 0.422935 1.83269C0.445847 1.88524 0.472706 1.93544 0.503022 1.98311M0.836104 1.375L0.503023 1.37599L0.503036 1.39275L0.501737 1.41083C0.499421 1.44307 0.499421 1.47537 0.501737 1.50761L0.505642 1.56197L0.502315 1.58469L0.503022 1.58951V1.62594V1.79777V1.98311M0.503022 1.98311C0.56154 2.07512 0.632936 2.15767 0.713673 2.22931C0.836055 2.33791 0.978624 2.42047 1.13047 2.47612C1.28235 2.53178 1.44357 2.56058 1.60502 2.56247L1.60502 2.5625H1.61087H9.5M0.503022 1.98311V9.625V9.62537C0.502879 9.81879 0.593005 10.0277 0.7952 10.2006C0.998639 10.3746 1.29225 10.4891 1.6186 10.5M9.5 2.5625L0.00302232 1.375C-0.00100744 1.4311 -0.00100744 1.48734 0.00302232 1.54344C-0.000990974 1.57084 -0.000990974 1.59854 0.00302232 1.62594V9.625C0.00275766 9.98149 0.170272 10.3241 0.470235 10.5806C0.770198 10.8372 1.17916 10.9875 1.61087 11M9.5 2.5625V10.5M9.5 2.5625V10.5M1.6186 10.5H1.61087V11M1.6186 10.5H9.5M1.6186 10.5C1.62084 10.5001 1.62307 10.5001 1.62531 10.5002L1.61087 11M9.5 10.5V10.6562C9.5 10.5804 9.53721 10.5323 9.55975 10.5137L9.58346 10.5424L9.55975 10.5137C9.57055 10.5048 9.57848 10.5016 9.58114 10.5007C9.58225 10.5003 9.58302 10.5001 9.58346 10.5C9.58411 10.4999 9.58407 10.5 9.58346 10.5H9.5Z" fill="#787878" stroke="#D1D1D1"/>
</svg>
