<svg width="97" height="74" viewBox="0 0 97 74" fill="none" xmlns="http://www.w3.org/2000/svg">
<g id="Group 387">
<path id="Ellipse 31" d="M97 27C97 47.4345 77.0572 74 49.6412 74C22.2251 74 0 57.4345 0 37C0 16.5654 22.2251 -7.62939e-06 49.6412 -7.62939e-06C77.0572 -7.62939e-06 97 6.56542 97 27Z" fill="#0E2764"/>
<g id="border_color">
<mask id="mask0_2957_413" style="mask-type:alpha" maskUnits="userSpaceOnUse" x="29" y="17" width="40" height="40">
<rect id="Bounding box" x="29" y="17" width="40" height="40" fill="#D9D9D9"/>
</mask>
<g mask="url(#mask0_2957_413)">
<path id="border_color_2" d="M32.3335 56.9999V50.3333H65.6668V56.9999H32.3335ZM39.0002 43.6666H41.3335L54.3335 30.7083L51.9585 28.3333L39.0002 41.3333V43.6666ZM35.6668 46.9999V39.9166L54.3335 21.2916C54.6391 20.986 54.9932 20.7499 55.396 20.5833C55.7988 20.4166 56.2224 20.3333 56.6668 20.3333C57.1113 20.3333 57.5418 20.4166 57.9585 20.5833C58.3752 20.7499 58.7502 20.9999 59.0835 21.3333L61.3752 23.6666C61.7085 23.9721 61.9516 24.3333 62.1043 24.7499C62.2571 25.1666 62.3335 25.5971 62.3335 26.0416C62.3335 26.4583 62.2571 26.868 62.1043 27.2708C61.9516 27.6735 61.7085 28.0416 61.3752 28.3749L42.7502 46.9999H35.6668Z" fill="white"/>
</g>
</g>
</g>
</svg>
