<svg width="40" height="40" viewBox="0 0 40 40" fill="none" xmlns="http://www.w3.org/2000/svg">
<path d="M40 18.7526C40 29.1094 31.045 37.5051 20 37.5051C18.019 37.5099 16.0461 37.2342 14.1325 36.6854C12.6725 37.4784 9.32 39 3.68 39.9912C3.18 40.0769 2.8 39.5197 2.9975 39.0214C3.8825 36.7818 4.6825 33.7975 4.9225 31.0757C1.86 27.7806 0 23.4675 0 18.7526C0 8.3958 8.955 0 20 0C31.045 0 40 8.3958 40 18.7526ZM12.5 18.7526C12.5 18.0421 12.2366 17.3607 11.7678 16.8583C11.2989 16.3559 10.663 16.0736 10 16.0736C9.33696 16.0736 8.70107 16.3559 8.23223 16.8583C7.76339 17.3607 7.5 18.0421 7.5 18.7526C7.5 19.4631 7.76339 20.1445 8.23223 20.6469C8.70107 21.1493 9.33696 21.4315 10 21.4315C10.663 21.4315 11.2989 21.1493 11.7678 20.6469C12.2366 20.1445 12.5 19.4631 12.5 18.7526ZM22.5 18.7526C22.5 18.0421 22.2366 17.3607 21.7678 16.8583C21.2989 16.3559 20.663 16.0736 20 16.0736C19.337 16.0736 18.7011 16.3559 18.2322 16.8583C17.7634 17.3607 17.5 18.0421 17.5 18.7526C17.5 19.4631 17.7634 20.1445 18.2322 20.6469C18.7011 21.1493 19.337 21.4315 20 21.4315C20.663 21.4315 21.2989 21.1493 21.7678 20.6469C22.2366 20.1445 22.5 19.4631 22.5 18.7526ZM30 21.4315C30.663 21.4315 31.2989 21.1493 31.7678 20.6469C32.2366 20.1445 32.5 19.4631 32.5 18.7526C32.5 18.0421 32.2366 17.3607 31.7678 16.8583C31.2989 16.3559 30.663 16.0736 30 16.0736C29.337 16.0736 28.7011 16.3559 28.2322 16.8583C27.7634 17.3607 27.5 18.0421 27.5 18.7526C27.5 19.4631 27.7634 20.1445 28.2322 20.6469C28.7011 21.1493 29.337 21.4315 30 21.4315Z" fill="white"/>
</svg>
