<svg width="45" height="40" viewBox="0 0 45 40" fill="none" xmlns="http://www.w3.org/2000/svg">
<path d="M13.8979 19.2593C16.1797 19.2593 18.368 18.2447 19.9814 16.4388C21.5949 14.6329 22.5013 12.1836 22.5013 9.62963C22.5013 7.07569 21.5949 4.62636 19.9814 2.82045C18.368 1.01455 16.1797 0 13.8979 0C11.6161 0 9.42778 1.01455 7.81432 2.82045C6.20086 4.62636 5.29443 7.07569 5.29443 9.62963C5.29443 12.1836 6.20086 14.6329 7.81432 16.4388C9.42778 18.2447 11.6161 19.2593 13.8979 19.2593ZM28.9526 34.5037C30.3556 35.1467 32.1398 35.5556 34.4111 35.5556C45 35.5556 45 26.6667 45 26.6667C45 25.4884 44.582 24.3584 43.8379 23.525C43.0938 22.6916 42.0845 22.223 41.0318 22.2222H28.7805C29.8209 23.6326 30.4456 25.437 30.4456 27.4074V28.4622C30.4402 28.7117 30.4252 28.9608 30.4006 29.2089C30.222 31.0602 29.7289 32.8568 28.9526 34.5037ZM41.0318 11.8519C41.0318 13.8164 40.3346 15.7005 39.0934 17.0897C37.8523 18.4788 36.169 19.2593 34.4138 19.2593C32.6586 19.2593 30.9753 18.4788 29.7341 17.0897C28.493 15.7005 27.7958 13.8164 27.7958 11.8519C27.7958 9.88729 28.493 8.00318 29.7341 6.61402C30.9753 5.22487 32.6586 4.44444 34.4138 4.44444C36.169 4.44444 37.8523 5.22487 39.0934 6.61402C40.3346 8.00318 41.0318 9.88729 41.0318 11.8519ZM0 28.1481C0 26.5765 0.557804 25.0692 1.5507 23.9579C2.5436 22.8466 3.89026 22.2222 5.29443 22.2222H22.5013C23.9055 22.2222 25.2521 22.8466 26.245 23.9579C27.2379 25.0692 27.7958 26.5765 27.7958 28.1481C27.7958 28.1481 27.7958 40 13.8979 40C0 40 0 28.1481 0 28.1481Z" fill="white"/>
</svg>
