<svg width="115" height="30" viewBox="0 0 115 30" fill="none" xmlns="http://www.w3.org/2000/svg">
<path d="M10.5 29H0.148438V0.71875H10.5C19.1328 0.71875 24.4453 6.03125 24.4453 14.8594C24.4453 23.6875 19.1328 29 10.5 29ZM6.78906 23.2969H10.2656C15.1094 23.2969 17.7656 20.9922 17.7656 14.8594C17.7656 8.72656 15.1094 6.38281 10.1875 6.38281H6.78906V23.2969ZM28.3906 29V0.71875H47.9609V6.14844H35.0312V12.125H46.9453V17.5547H35.0312V23.5703H48V29H28.3906ZM58.0781 29H50.8906L60.5 0.71875H69.3281L78.8984 29H71.75L69.8359 22.9453H59.9922L58.0781 29ZM61.5938 17.8672H68.2344L65.0312 7.71094H64.7969L61.5938 17.8672ZM81.9062 29V0.71875H93.4688C99.8359 0.71875 103.742 4.3125 103.742 10.0938C103.742 13.9805 101.965 16.7734 98.8594 18.1797L104.758 29H97.4531L92.2578 19.2734H88.5469V29H81.9062ZM88.5469 13.9609H92.0625C95.1875 13.9609 96.8672 12.75 96.8672 10.0938C96.8672 7.4375 95.1875 6.10938 92.0625 6.10938H88.5469V13.9609ZM111.164 29.3906C109.211 29.3906 107.609 27.8281 107.648 25.8359C107.609 23.9219 109.211 22.3594 111.164 22.3594C113.039 22.3594 114.68 23.9219 114.719 25.8359C114.68 27.8281 113.039 29.3906 111.164 29.3906Z" fill="#0E2764"/>
</svg>
