<svg width="208" height="208" viewBox="0 0 208 208" fill="none" xmlns="http://www.w3.org/2000/svg">
<g clip-path="url(#clip0_8544_1864)">
<rect width="208" height="208" rx="31" fill="white"/>
<path d="M208 29.7152C208 13.3039 194.696 0 178.285 0H29.7152C13.3039 0 0 13.3039 0 29.7152V178.285C0 194.696 13.3039 208 29.7152 208H178.285C194.696 208 208 194.696 208 178.285V29.7152Z" fill="white"/>
<path d="M71.2688 153.156C60.2231 153.156 51.2688 144.202 51.2688 133.156V80.7344C51.2688 69.6887 60.2231 60.7344 71.2688 60.7344H78.5687C87.9531 60.7344 96.2 62.2984 103.309 65.4266C110.514 68.4599 116.106 73.3417 120.088 80.0719C124.069 86.8021 126.059 95.6177 126.059 106.519C126.059 117.42 124.069 126.33 120.088 133.25C116.106 140.075 110.656 145.099 103.736 148.322C96.8161 151.545 88.901 153.156 79.9906 153.156H71.2688ZM75.725 132.112C75.725 132.898 76.3616 133.534 77.1469 133.534V133.534C81.6021 133.534 85.6307 132.776 89.2328 131.259C92.8349 129.743 95.6787 127.041 97.7641 123.155C99.9443 119.268 101.034 113.723 101.034 106.519C101.034 99.3146 99.9443 93.8641 97.7641 90.1672C95.6787 86.3755 92.8349 83.8162 89.2328 82.4891C85.6307 81.0672 81.6021 80.3562 77.1469 80.3562V80.3562C76.3616 80.3562 75.725 80.9928 75.725 81.7781V132.112Z" fill="#0E2764"/>
<path d="M152.193 154.863C148.117 154.863 144.704 153.441 141.955 150.597C139.301 147.658 137.974 144.151 137.974 140.075C137.974 135.904 139.301 132.397 141.955 129.553C144.704 126.709 148.117 125.287 152.193 125.287C156.364 125.287 159.776 126.709 162.43 129.553C165.085 132.397 166.412 135.904 166.412 140.075C166.412 144.151 165.085 147.658 162.43 150.597C159.776 153.441 156.364 154.863 152.193 154.863Z" fill="#0E2764"/>
</g>
<defs>
<clipPath id="clip0_8544_1864">
<rect width="208" height="208" rx="31" fill="white"/>
</clipPath>
</defs>
</svg>
