<svg width="13" height="12" viewBox="0 0 13 12" fill="none" xmlns="http://www.w3.org/2000/svg">
<path d="M10.739 0.382887C10.9587 0.134586 11.2511 -0.00268485 11.5545 3.97978e-05C11.8579 0.00276444 12.1485 0.145272 12.365 0.397491C12.5816 0.649711 12.7071 0.991914 12.7151 1.35189C12.7231 1.71187 12.613 2.06147 12.408 2.32692L6.18428 11.5657C6.07726 11.7025 5.9481 11.8123 5.80451 11.8885C5.66092 11.9648 5.50586 12.0058 5.3486 12.0093C5.19134 12.0127 5.0351 11.9785 4.88924 11.9087C4.74337 11.8388 4.61087 11.7348 4.49966 11.6027L0.372345 6.70377C0.257406 6.57665 0.165217 6.42335 0.101276 6.25301C0.0373354 6.08268 0.00295355 5.8988 0.000182063 5.71236C-0.00258942 5.52591 0.0263063 5.34071 0.0851447 5.16781C0.143983 4.9949 0.231559 4.83783 0.342649 4.70598C0.453738 4.57412 0.586064 4.47017 0.731734 4.40033C0.877404 4.33049 1.03343 4.29619 1.19051 4.29948C1.34759 4.30277 1.5025 4.34358 1.64601 4.41948C1.78951 4.49537 1.91867 4.6048 2.02577 4.74122L5.29205 8.61633L10.7094 0.42362L10.739 0.382887Z" fill="#0E2764"/>
</svg>
